<?xml version="1.0" encoding="UTF-8"?><svg id="Layer_2" xmlns="http://www.w3.org/2000/svg" viewBox="0 0 826.06 172.39"><defs><style>.cls-1{fill:none;}.cls-2{fill:#00b3ff;}.cls-3{fill:orange;}.cls-4{fill:#ffb833;}.cls-5{fill:#282936;}</style></defs><g id="Layer_1-2"><g><g><path class="cls-1" d="M131.58,69.67c-1.57-1.55-3.64-2.32-6.22-2.32s-4.66,.77-6.22,2.32c-1.57,1.55-2.39,3.9-2.46,7.07-.08,2.09-.12,5.3-.12,9.62s.04,7.62,.12,9.86c.08,3.17,.88,5.53,2.41,7.07,1.53,1.55,3.62,2.32,6.28,2.32s4.75-.77,6.28-2.32c1.53-1.54,2.33-3.9,2.41-7.07,.16-4.48,.23-7.77,.23-9.86,0-2.24-.08-5.45-.23-9.62-.08-3.17-.9-5.53-2.46-7.07Z"/><polygon class="cls-1" points="623.18 80.69 623.18 62.67 612.94 64.11 623.18 80.69"/><polygon class="cls-1" points="775.06 93.91 788.33 93.91 781.64 72.34 775.06 93.91"/><g><path class="cls-3" d="M343.02,39.39c3.15,.06,5.03-1.29,5.65-4.39-3.22-.2-4.98,1.29-5.65,4.39Z"/><path class="cls-3" d="M337.37,32.06c3.11,.05,5.04-1.22,5.64-4.38-3.21-.23-4.94,1.31-5.64,4.38Z"/><path class="cls-3" d="M340.32,35.63c3.22,.21,4.87-1.37,5.6-4.39-3.18,.07-5.12,1.26-5.6,4.39Z"/><path class="cls-3" d="M345.8,43.12q4.26-.72,5.76-4.49c-3.2-.22-4.99,1.3-5.76,4.49Z"/><path class="cls-4" d="M526.82,56.52c-9.85-44.68-78.08-67.62-152.39-51.23-13.22,2.92-25.73,6.88-37.33,11.68,5.77,7.47,11.55,14.97,17.39,22.54,2.29-1.24,4.26-2.3,6.24-3.37,.1,.14,.19,.28,.29,.42-1.55,1.64-3.11,3.28-4.77,5.03,.78,1.14,1.52,2.22,2.29,3.34-2.39,2.66-4.75,5.27-7.22,8.01-1.21-1.5-2.41-2.97-3.76-4.63-2.15,1.18-4.28,2.34-6.41,3.51-.09-.13-.18-.25-.27-.38,1.62-1.69,3.23-3.38,5.07-5.31-6.32-8.21-12.66-16.43-18.99-24.65-14.54,6.96-27.36,15.26-37.94,24.42h12.63c10.96,0,19.58,2.4,25.88,7.19,6.3,4.79,9.45,11.87,9.45,21.22s-3.12,16.15-9.36,20.67c-.01,0-.02,.02-.03,.02-6.26,4.52-14.91,6.78-25.94,6.78h-8.22v22.15c0,.85-.31,1.58-.94,2.2-.63,.62-1.37,.93-2.23,.93h-24.18c-.86,0-1.6-.31-2.23-.93-.63-.62-.94-1.35-.94-2.2v-45.35c-4,8.32-6.2,16.83-6.36,25.3-.06,3.44,.21,6.87,.84,10.27,.11,.57,.21,1.14,.34,1.71,9.85,44.68,78.08,67.62,152.39,51.23,34.79-7.67,64.74-22.6,85.75-40.9-.67-.53-1.24-1.12-1.69-1.79l-19.84-29.57v29.11c0,.85-.31,1.58-.94,2.2-.63,.62-1.37,.93-2.23,.93h-21.25c-.86,0-1.6-.31-2.23-.93-.63-.62-.94-1.35-.94-2.2V49.03c0-.85,.31-1.58,.94-2.2,.63-.62,1.37-.93,2.23-.93h18.54c2.19,0,3.79,.89,4.81,2.67l16.14,26.14,3.7,5.98v-31.66c0-.85,.31-1.58,.94-2.2,.63-.62,1.37-.93,2.23-.93h21.25c.86,0,1.6,.31,2.23,.93,.62,.62,.94,1.35,.94,2.2v46.62c3.29-6.41,5.53-12.94,6.59-19.49,.34-2.1,.56-4.19,.65-6.29,.2-4.47-.16-8.94-1.13-13.36Zm-165.75,26.79c5.35,1.47,9.27,2.55,13.18,3.62,.02,.41,.05,.82,.07,1.24-1.19,.47-2.38,.94-3.6,1.42-1.61,.63-3.28,1.29-5.1,2-.24-.43-.47-.86-.7-1.28-1.15-2.09-2.26-4.11-3.85-7Zm59.27,.06c-1.73,3.26-2.89,5.46-4.38,8.25-3.26-1.33-5.91-2.41-10.18-4.15,4.96-1.46,8.66-2.55,13.43-3.96l1.12-.14Zm-31.39,33.38c11.06-.89,22.12-1.78,33.63-2.7-1.53,1.64-3.12,3.11-4.76,4.46-7.35,5.87-16.63,9.42-26.75,9.51-1.72-.02-3.47-.13-5.25-.34-15.73-1.87-27.14-10.3-34.77-25.82,26.77,9.68,52.24,9.42,77.82,1.46,.16,.38,.32,.77,.48,1.15-.17,.33-.34,.66-.51,.98-3.93,1.64-7.79,3.48-11.83,4.74-4.49,1.4-9.15,2.37-13.8,3.15-4.77,.8-9.62,1.13-14.44,1.66l.18,1.76Zm47.15-72.25c3.02,3.45,5.6,6.4,8.72,9.97-8.56-.86-16.11-1.63-24.91-2.52,.28,.33,.56,.66,.84,.99,6.6,7.83,11.62,15.39,12.73,25.36-28.73-10.29-56.88-10.62-85.93,.2,1.46-1.47,2.68-3.79,4.41-4.26,10.18-2.8,20.46-5.23,30.74-7.64,2.17-.51,4.48-.39,6.68-1.08-12.88-1.88-25.49-.07-38.18,3.37,5.93-19.32,29.29-31.76,49.73-25.95,2.01,.57,3.73,.83,5.28,.79,3.46-.1,6.09-1.7,9.27-4.68,5.11-4.79,11.72-7.96,17.68-11.83,.53,.62,1.05,1.23,1.58,1.85-.59,1.8-1.18,3.61-1.91,5.84,5.82,1.95,11.32,3.8,18.4,6.17-5.82,1.31-9.95,2.25-15.12,3.42Z"/><path class="cls-3" d="M304.82,78.78c1.1-1.04,1.64-2.61,1.64-4.7,0-1.78-.43-3.32-1.29-4.64-.86-1.31-2.23-1.97-4.11-1.97h-8.22v12.87h8.22c1.41,0,2.66-.52,3.76-1.57Z"/><path class="cls-3" d="M334.99,28.41c2.88,0,4.61-1.44,5.18-4.3-4.04,.14-5.22,1.15-5.18,4.3Z"/><path class="cls-3" d="M331.79,24.64c3.18,.26,4.92-1.29,5.67-4.41-3.16,.08-5.12,1.32-5.67,4.41Z"/><path class="cls-3" d="M334.04,18.27c-1.7,.73-3.38,1.48-5.03,2.25-.06,.19-.14,.37-.19,.57,2.57,.02,4.33-.83,5.22-2.82Z"/></g><g><path class="cls-5" d="M32.98,69.5c1.49-1.43,3.6-2.15,6.34-2.15,2.19,0,3.99,.46,5.4,1.39,1.41,.93,2.54,2.55,3.4,4.87,.47,1.32,1,2.2,1.58,2.67s1.5,.7,2.76,.7h23.94c.71,0,1.31-.25,1.82-.75,.51-.5,.76-1.1,.76-1.8-.08-6.73-1.98-12.31-5.69-16.76-3.72-4.44-8.53-7.71-14.44-9.8-5.91-2.09-12.38-3.13-19.43-3.13-11.5,0-20.82,2.65-27.94,7.94C4.38,57.98,.59,65.81,.12,76.17c-.08,2.17-.12,5.64-.12,10.44s.04,8.12,.12,10.2c.47,10.67,4.19,18.57,11.15,23.71,6.96,5.14,16.35,7.71,28.17,7.71,7.04,0,13.52-1.04,19.43-3.13,5.91-2.09,10.72-5.35,14.44-9.8,3.72-4.44,5.61-10.03,5.69-16.76,0-.7-.25-1.29-.76-1.8-.51-.5-1.11-.75-1.82-.75h-23.94c-1.33,0-2.29,.23-2.88,.7s-1.08,1.35-1.47,2.67c-1.41,4.17-4.34,6.26-8.8,6.26-2.74,0-4.85-.71-6.34-2.14-1.49-1.43-2.27-3.84-2.35-7.25-.08-2.24-.12-5.53-.12-9.86s.04-7.54,.12-9.62c.08-3.4,.86-5.82,2.35-7.25Z"/><path class="cls-5" d="M159.22,59.35c-3.33-4.79-7.88-8.42-13.67-10.9-5.79-2.47-12.52-3.71-20.19-3.71s-14.4,1.24-20.19,3.71c-5.79,2.47-10.35,6.11-13.67,10.9-3.33,4.79-5.11,10.51-5.34,17.16-.08,2.17-.12,5.61-.12,10.32s.04,8,.12,10.09c.47,10.2,4.19,17.97,11.15,23.31,1.48,1.13,3.07,2.14,4.76,3.03l55.5-6.96c4.29-4.99,6.63-11.44,6.99-19.38,.16-4.17,.23-7.54,.23-10.09s-.08-5.99-.23-10.32c-.23-6.65-2.02-12.37-5.34-17.16Zm-25.18,36.87c-.08,3.17-.88,5.53-2.41,7.07-1.53,1.55-3.62,2.32-6.28,2.32s-4.75-.77-6.28-2.32c-1.53-1.54-2.33-3.9-2.41-7.07-.08-2.24-.12-5.53-.12-9.86s.04-7.54,.12-9.62c.08-3.17,.9-5.53,2.46-7.07,1.56-1.55,3.64-2.32,6.22-2.32s4.65,.77,6.22,2.32c1.56,1.55,2.39,3.9,2.46,7.07,.16,4.17,.23,7.38,.23,9.62,0,2.09-.08,5.37-.23,9.86Z"/><path class="cls-5" d="M247.54,45.9h-23.01c-.86,0-1.6,.31-2.23,.93-.63,.62-.94,1.35-.94,2.2v46.96c0,2.94-.72,5.16-2.17,6.67-1.45,1.51-3.62,2.26-6.51,2.26s-5.07-.75-6.51-2.26c-1.45-1.51-2.17-3.73-2.17-6.67V49.03c0-.85-.31-1.58-.94-2.2-.63-.62-1.37-.93-2.23-.93h-23c-.86,0-1.61,.31-2.23,.93-.63,.62-.94,1.35-.94,2.2v47.43c0,6.82,1.43,12.54,4.27,17.16l70.98-8.9c.53-2.55,.81-5.3,.81-8.27V49.03c0-.85-.31-1.58-.94-2.2-.63-.62-1.37-.93-2.23-.93Z"/><path class="cls-5" d="M212.8,128.23c11.66,0,20.89-2.65,27.7-7.94,1.67-1.29,3.12-2.75,4.38-4.36l-54.64,7.69c6.1,3.07,13.62,4.61,22.56,4.61Z"/><path class="cls-5" d="M327.54,53.09c-6.3-4.79-14.93-7.19-25.88-7.19h-35.56c-.86,0-1.6,.31-2.23,.93-.63,.62-.94,1.35-.94,2.2v54.06l64.71-8.11c6.24-4.52,9.36-11.41,9.36-20.67s-3.15-16.43-9.45-21.22Zm-22.71,25.68c-1.1,1.04-2.35,1.57-3.76,1.57h-8.22v-12.87h8.22c1.88,0,3.25,.66,4.11,1.97,.86,1.32,1.29,2.86,1.29,4.64,0,2.09-.55,3.65-1.64,4.7Z"/><path class="cls-5" d="M262.92,123.94c0,.85,.31,1.58,.94,2.2,.63,.62,1.37,.93,2.23,.93h24.18c.86,0,1.6-.31,2.23-.93,.63-.62,.94-1.35,.94-2.2v-14.85l-30.52,4.3v10.55Z"/><path class="cls-5" d="M447.7,46.83c-.63,.62-.94,1.35-.94,2.2v31.02l42.67-5.35-16.14-26.14c-1.02-1.78-2.62-2.67-4.81-2.67h-18.54c-.86,0-1.6,.31-2.23,.93Z"/><path class="cls-5" d="M517.54,45.9h-21.25c-.86,0-1.6,.31-2.23,.93-.63,.62-.94,1.35-.94,2.2v25.21l27.58-3.46v-21.75c0-.85-.31-1.58-.94-2.2-.63-.62-1.37-.93-2.23-.93Z"/><path class="cls-5" d="M446.76,123.94c0,.85,.31,1.58,.94,2.2,.63,.62,1.37,.93,2.23,.93h21.25c.86,0,1.6-.31,2.23-.93,.63-.62,.94-1.35,.94-2.2v-29.11l19.84,29.57c.45,.67,1.02,1.27,1.69,1.79,.03,.02,.05,.04,.07,.06,.71,.54,1.72,.81,3.05,.81h18.55c.86,0,1.6-.31,2.23-.93,.62-.62,.94-1.35,.94-2.2v-46.85l-73.95,10.41v36.44Z"/><path class="cls-5" d="M533.62,123.94c0,.85,.31,1.58,.94,2.2,.63,.62,1.37,.93,2.23,.93h23.94c.86,0,1.6-.31,2.23-.93,.62-.62,.94-1.35,.94-2.2v-52.93l-30.28,4.26v48.66Z"/><path class="cls-5" d="M560.74,45.9h-23.94c-.86,0-1.6,.31-2.23,.93-.63,.62-.94,1.35-.94,2.2v20.13l30.28-3.8v-16.34c0-.85-.31-1.58-.94-2.2-.63-.62-1.37-.93-2.23-.93Z"/><path class="cls-5" d="M603.34,48.57c-1.02-1.78-2.62-2.67-4.81-2.67h-18.54c-.86,0-1.6,.31-2.23,.93-.63,.62-.94,1.35-.94,2.2v14.72l33.32-4.18-6.8-11.01Z"/><path class="cls-5" d="M647.59,45.9h-21.25c-.86,0-1.6,.31-2.23,.93-.63,.62-.94,1.35-.94,2.2v8.91l27.58-3.46v-5.45c0-.85-.31-1.58-.94-2.2-.63-.62-1.37-.93-2.23-.93Z"/><path class="cls-5" d="M623.18,80.69l-10.24-16.58-36.12,5.09v54.74c0,.85,.31,1.58,.94,2.2,.63,.62,1.37,.93,2.23,.93h21.25c.86,0,1.6-.31,2.23-.93,.63-.62,.94-1.35,.94-2.2v-29.11l19.84,29.57c.47,.7,1.06,1.32,1.76,1.86,.71,.54,1.72,.81,3.05,.81h18.55c.86,0,1.6-.31,2.23-.93,.62-.62,.94-1.35,.94-2.2V58.79l-27.58,3.88v18.02Z"/><path class="cls-5" d="M702.97,51.44l-37.53,5.28v9.59c0,.85,.31,1.58,.94,2.2,.62,.62,1.37,.93,2.23,.93h34.86v26.79c0,3.4-.59,5.82-1.76,7.25-1.17,1.43-2.9,2.14-5.16,2.14-1.8,0-3.19-.35-4.17-1.04-.98-.7-1.86-1.89-2.64-3.59-.63-1.31-1.27-2.26-1.94-2.84-.67-.58-1.62-.87-2.88-.87h-23.95c-.7,0-1.31,.25-1.82,.75-.51,.5-.76,1.1-.76,1.8,.08,5.88,1.84,10.96,5.28,15.25,3.44,4.29,7.98,7.56,13.62,9.8s11.74,3.36,18.31,3.36c7.35,0,13.91-1.12,19.66-3.36,5.75-2.24,10.29-5.7,13.62-10.38,3.33-4.68,4.99-10.45,4.99-17.34V49.03c0-.7-.22-1.31-.64-1.85l-30.25,4.26Z"/><path class="cls-5" d="M668.61,45.9c-.86,0-1.61,.31-2.23,.93-.63,.62-.94,1.35-.94,2.2v3.61l53.8-6.74h-50.63Z"/><path class="cls-5" d="M825.89,123.71l-26.17-73.98c-.31-1-.9-1.89-1.76-2.67-.86-.77-2.04-1.16-3.52-1.16h-25.47c-1.49,0-2.66,.39-3.52,1.16-.86,.77-1.45,1.66-1.76,2.67l-26.17,73.98c-.08,.23-.12,.5-.12,.81,0,.7,.25,1.29,.76,1.8,.51,.5,1.12,.75,1.82,.75h21.71c2.35,0,3.87-.97,4.58-2.9l2.82-7.65h25.24l2.82,7.65c.7,1.93,2.23,2.9,4.58,2.9h21.71c.7,0,1.31-.25,1.82-.75,.51-.5,.76-1.1,.76-1.8,0-.31-.04-.58-.12-.81Zm-50.82-29.8l6.57-21.57,6.69,21.57h-13.26Z"/><path class="cls-5" d="M351.33,52.95c2.46-2.73,4.82-5.35,7.22-8.01-.77-1.12-1.51-2.2-2.29-3.34,1.66-1.75,3.21-3.39,4.77-5.03-.1-.14-.19-.28-.29-.42-1.97,1.07-3.94,2.13-6.24,3.37-5.84-7.57-11.63-15.07-17.39-22.54-4.2-5.45-8.39-10.88-12.58-16.3-1.71,3.79-4.64,5.69-8.41,6.74,3.62,4.7,7.23,9.39,10.85,14.08,6.33,8.22,12.67,16.44,18.99,24.65-1.84,1.93-3.46,3.62-5.07,5.31,.09,.13,.18,.25,.27,.38,2.13-1.16,4.26-2.33,6.41-3.51,1.34,1.66,2.54,3.14,3.76,4.63Zm-27.99-39.28c.56-3.23,2.59-4.41,5.66-4.38-.74,2.98-2.39,4.66-5.66,4.38Zm2.75,3.71c.62-3.07,2.47-4.45,5.76-4.41q-1.72,3.94-5.76,4.41Zm2.92,3.15c.91-2.67,2.54-4.08,5.53-3.82-.11,.6-.29,1.1-.5,1.57-.9,2-2.65,2.84-5.22,2.82,.06-.2,.13-.38,.19-.57Zm2.78,4.12c.55-3.1,2.5-4.33,5.67-4.41-.75,3.12-2.49,4.67-5.67,4.41Zm8.38-.53c-.56,2.86-2.3,4.29-5.18,4.3-.05-3.15,1.14-4.15,5.18-4.3Zm2.84,3.56c-.59,3.17-2.53,4.43-5.64,4.38,.7-3.07,2.43-4.61,5.64-4.38Zm2.91,3.56c-.73,3.02-2.38,4.6-5.6,4.39,.48-3.13,2.42-4.32,5.6-4.39Zm2.75,3.76c-.62,3.1-2.5,4.44-5.65,4.39,.67-3.1,2.43-4.59,5.65-4.39Zm-2.87,8.12c.77-3.19,2.56-4.71,5.76-4.49q-1.5,3.78-5.76,4.49Z"/><path class="cls-5" d="M436.11,44.5c5.17-1.17,9.31-2.1,15.12-3.42-7.08-2.37-12.58-4.22-18.4-6.17,.73-2.23,1.32-4.04,1.91-5.84-.53-.62-1.05-1.23-1.58-1.85-5.96,3.87-12.58,7.04-17.68,11.83-3.18,2.98-5.81,4.58-9.27,4.68-1.55,.04-3.27-.21-5.28-.79-20.43-5.82-43.79,6.63-49.73,25.95,12.7-3.44,25.31-5.25,38.18-3.37-2.2,.68-4.51,.57-6.68,1.08-10.28,2.41-20.56,4.84-30.74,7.64-1.73,.48-2.95,2.8-4.41,4.26,29.05-10.81,57.19-10.49,85.93-.2-1.11-9.96-6.12-17.52-12.73-25.36-.28-.33-.56-.66-.84-.99,8.8,.89,16.35,1.65,24.91,2.52-3.12-3.57-5.71-6.53-8.72-9.97Z"/><path class="cls-5" d="M351.06,101.85c7.63,15.52,19.04,23.95,34.77,25.82,1.78,.21,3.53,.32,5.25,.34,10.12-.1,19.4-3.64,26.75-9.51,1.64-1.35,3.23-2.83,4.76-4.46-11.51,.93-22.57,1.81-33.63,2.7l-.18-1.76c4.82-.53,9.67-.87,14.44-1.66,4.65-.78,9.3-1.75,13.8-3.15,4.04-1.26,7.91-3.1,11.83-4.74,.18-.32,.35-.65,.51-.98-.16-.38-.32-.77-.48-1.15-25.59,7.96-51.06,8.22-77.82-1.46Z"/><path class="cls-5" d="M370.72,89.58c1.22-.48,2.42-.95,3.6-1.42-.02-.41-.05-.82-.07-1.24-3.92-1.08-7.83-2.15-13.18-3.62,1.59,2.89,2.7,4.92,3.85,7,.23,.42,.46,.84,.7,1.28,1.82-.71,3.48-1.37,5.1-2Z"/><path class="cls-5" d="M419.22,83.51c-4.77,1.41-8.47,2.5-13.43,3.96,4.27,1.74,6.91,2.82,10.18,4.15,1.48-2.8,2.65-4.99,4.38-8.25l-1.12,.14Z"/></g></g><g><path class="cls-5" d="M569.69,163.89c-1.36-1.27-2.09-3.03-2.17-5.27l-.03-1.25,.03-1.25c.08-2.25,.81-4,2.17-5.27,1.36-1.27,3.19-1.9,5.48-1.9,1.64,0,3.03,.29,4.16,.87,1.13,.58,1.98,1.29,2.53,2.14s.85,1.65,.89,2.42c.02,.21-.05,.38-.2,.53-.16,.15-.34,.22-.55,.22h-2.78c-.23,0-.4-.05-.5-.14-.1-.09-.21-.27-.31-.51-.31-.79-.72-1.36-1.23-1.72-.51-.35-1.16-.53-1.95-.53-1.06,0-1.89,.33-2.48,1-.59,.67-.91,1.68-.95,3.06l-.03,1.15,.03,1.03c.13,2.7,1.27,4.06,3.43,4.06,.81,0,1.47-.17,1.97-.51,.5-.34,.91-.92,1.22-1.73,.08-.23,.18-.4,.3-.5,.11-.1,.29-.16,.52-.16h2.78c.21,0,.39,.07,.55,.22,.16,.15,.22,.32,.2,.53-.04,.73-.33,1.51-.87,2.36-.54,.84-1.37,1.57-2.5,2.17-1.12,.6-2.53,.91-4.21,.91-2.29,0-4.11-.63-5.48-1.9Z"/><path class="cls-5" d="M587.87,163.92c-1.1-1.25-1.65-2.96-1.65-5.15v-8.77c0-.23,.07-.41,.22-.55,.15-.14,.32-.2,.53-.2h2.81c.21,0,.38,.07,.53,.22,.15,.15,.22,.32,.22,.53v8.58c0,2.56,1.11,3.84,3.34,3.84,1.08,0,1.94-.34,2.57-1.03s.95-1.62,.95-2.81v-8.58c0-.23,.07-.41,.22-.55,.15-.14,.32-.2,.53-.2h2.78c.23,0,.41,.07,.55,.2s.2,.32,.2,.55v14.73c0,.21-.07,.39-.2,.53-.14,.15-.32,.22-.55,.22h-2.59c-.21,0-.38-.07-.53-.22-.15-.15-.22-.32-.22-.53v-1.28c-1.14,1.56-2.87,2.34-5.18,2.34-1.91,0-3.42-.62-4.52-1.87Z"/><path class="cls-5" d="M609.24,164c-.96-.99-1.44-2.44-1.44-4.35v-7.05h-2.46c-.21,0-.39-.07-.53-.22-.15-.15-.22-.32-.22-.53v-1.84c0-.21,.07-.38,.22-.53s.32-.22,.53-.22h2.46v-5.18c0-.23,.07-.41,.22-.55,.15-.14,.32-.2,.53-.2h2.59c.23,0,.41,.07,.55,.2,.13,.14,.2,.32,.2,.55v5.18h3.9c.21,0,.38,.07,.53,.22,.15,.15,.22,.32,.22,.53v1.84c0,.21-.07,.39-.22,.53s-.32,.22-.53,.22h-3.9v6.71c0,.9,.16,1.57,.47,2.03,.31,.46,.82,.69,1.53,.69h2.18c.23,0,.41,.07,.55,.2,.13,.14,.2,.32,.2,.55v1.97c0,.21-.07,.39-.2,.53-.14,.15-.32,.22-.55,.22h-2.56c-1.89,0-3.32-.49-4.27-1.48Z"/><path class="cls-5" d="M627.55,146.39c-.15-.15-.22-.32-.22-.53v-2.28c0-.23,.07-.42,.22-.56,.15-.15,.32-.22,.53-.22h2.87c.23,0,.42,.07,.56,.22,.15,.15,.22,.33,.22,.56v2.28c0,.21-.08,.38-.23,.53-.16,.15-.34,.22-.55,.22h-2.87c-.21,0-.39-.07-.53-.22Zm.13,18.87c-.15-.15-.22-.32-.22-.53v-14.73c0-.23,.07-.41,.22-.55,.15-.14,.32-.2,.53-.2h2.65c.21,0,.38,.07,.53,.22,.15,.15,.22,.32,.22,.53v14.73c0,.21-.07,.39-.22,.53s-.32,.22-.53,.22h-2.65c-.21,0-.38-.07-.53-.22Z"/><path class="cls-5" d="M639.19,164c-.96-.99-1.44-2.44-1.44-4.35v-7.05h-2.46c-.21,0-.39-.07-.53-.22-.15-.15-.22-.32-.22-.53v-1.84c0-.21,.07-.38,.22-.53s.32-.22,.53-.22h2.46v-5.18c0-.23,.07-.41,.22-.55,.15-.14,.32-.2,.53-.2h2.59c.23,0,.41,.07,.55,.2,.13,.14,.2,.32,.2,.55v5.18h3.9c.21,0,.38,.07,.53,.22,.15,.15,.22,.32,.22,.53v1.84c0,.21-.07,.39-.22,.53s-.32,.22-.53,.22h-3.9v6.71c0,.9,.16,1.57,.47,2.03,.31,.46,.82,.69,1.53,.69h2.18c.23,0,.41,.07,.55,.2,.13,.14,.2,.32,.2,.55v1.97c0,.21-.07,.39-.2,.53-.14,.15-.32,.22-.55,.22h-2.56c-1.89,0-3.32-.49-4.27-1.48Z"/><path class="cls-2" d="M657.65,165.26c-.15-.15-.22-.32-.22-.53v-20.65c0-.23,.07-.41,.22-.55s.32-.2,.53-.2h2.62c.23,0,.41,.07,.55,.2s.2,.32,.2,.55v20.65c0,.21-.07,.39-.2,.53-.14,.15-.32,.22-.55,.22h-2.62c-.21,0-.39-.07-.53-.22Z"/><path class="cls-2" d="M666.17,146.39c-.15-.15-.22-.32-.22-.53v-2.28c0-.23,.07-.42,.22-.56,.15-.15,.32-.22,.53-.22h2.87c.23,0,.42,.07,.56,.22,.15,.15,.22,.33,.22,.56v2.28c0,.21-.08,.38-.23,.53-.16,.15-.34,.22-.55,.22h-2.87c-.21,0-.39-.07-.53-.22Zm.13,18.87c-.15-.15-.22-.32-.22-.53v-14.73c0-.23,.07-.41,.22-.55,.15-.14,.32-.2,.53-.2h2.65c.21,0,.38,.07,.53,.22,.15,.15,.22,.32,.22,.53v14.73c0,.21-.07,.39-.22,.53s-.32,.22-.53,.22h-2.65c-.21,0-.38-.07-.53-.22Z"/><path class="cls-2" d="M674.97,165.26c-.15-.15-.22-.32-.22-.53v-20.65c0-.23,.07-.41,.22-.55s.32-.2,.53-.2h2.59c.21,0,.38,.07,.53,.22,.15,.15,.22,.32,.22,.53v10.67l5.18-4.96c.06-.04,.16-.12,.3-.23,.13-.11,.27-.19,.39-.23,.12-.04,.28-.06,.47-.06h2.96c.21,0,.37,.06,.5,.19,.12,.12,.19,.29,.19,.5,0,.19-.1,.37-.31,.56l-6.36,6.02,7.14,7.74c.19,.19,.28,.36,.28,.53,0,.21-.06,.37-.19,.5-.12,.12-.28,.19-.47,.19h-3.03c-.29,0-.5-.04-.64-.11-.14-.07-.31-.21-.51-.42l-5.9-6.27v6.05c0,.21-.07,.39-.22,.53s-.32,.22-.53,.22h-2.59c-.21,0-.39-.07-.53-.22Z"/><path class="cls-2" d="M693.05,163.8c-1.36-1.33-2.09-3.22-2.17-5.68l-.03-.78c0-2.6,.68-4.65,2.04-6.15,1.36-1.5,3.25-2.25,5.66-2.25s4.38,.75,5.72,2.25c1.34,1.5,2.01,3.49,2.01,5.99v.66c0,.21-.07,.39-.22,.53-.15,.15-.33,.22-.56,.22h-10.36v.25c.04,1.16,.36,2.13,.95,2.89,.59,.76,1.41,1.14,2.45,1.14,1.19,0,2.15-.48,2.9-1.43,.19-.23,.33-.37,.44-.42s.28-.08,.53-.08h2.75c.19,0,.35,.05,.48,.16s.2,.25,.2,.44c0,.5-.3,1.09-.89,1.76-.59,.68-1.44,1.26-2.54,1.76-1.1,.5-2.38,.75-3.84,.75-2.33,0-4.17-.66-5.54-2Zm8.94-7.86v-.06c0-1.23-.31-2.21-.92-2.95s-1.45-1.11-2.51-1.11-1.89,.37-2.5,1.11-.9,1.72-.9,2.95v.06h6.83Z"/><path class="cls-5" d="M719.25,165.15c-.88-.43-1.58-1-2.09-1.73-.51-.73-.76-1.53-.76-2.4,0-1.41,.57-2.56,1.72-3.43,1.14-.87,2.71-1.47,4.71-1.78l4.27-.62v-.66c0-.89-.23-1.57-.69-2.03s-1.19-.69-2.18-.69c-.69,0-1.24,.12-1.65,.37-.42,.25-.75,.5-1.01,.76-.26,.26-.43,.43-.51,.52-.08,.25-.24,.37-.47,.37h-2.43c-.19,0-.35-.06-.48-.19-.14-.13-.2-.29-.2-.5,.02-.52,.28-1.11,.76-1.76,.49-.66,1.24-1.23,2.26-1.72s2.28-.73,3.78-.73c2.45,0,4.24,.55,5.37,1.65s1.68,2.55,1.68,4.34v9.8c0,.21-.07,.39-.2,.53-.14,.15-.32,.22-.55,.22h-2.59c-.21,0-.39-.07-.53-.22-.15-.15-.22-.32-.22-.53v-1.22c-.46,.67-1.1,1.21-1.93,1.64-.83,.43-1.87,.64-3.12,.64-1.06,0-2.03-.21-2.92-.64Zm6.79-3.48c.73-.75,1.09-1.83,1.09-3.24v-.62l-3.12,.5c-2.39,.37-3.59,1.18-3.59,2.4,0,.67,.28,1.18,.83,1.54s1.21,.55,1.98,.55c1.14,0,2.08-.37,2.81-1.12Z"/><path class="cls-2" d="M743.39,165.26c-.15-.15-.22-.32-.22-.53v-14.73c0-.23,.07-.41,.22-.55,.15-.14,.32-.2,.53-.2h2.59c.23,0,.41,.07,.55,.2s.2,.32,.2,.55v1.28c1.27-1.56,3.01-2.34,5.21-2.34,1.91,0,3.43,.62,4.55,1.87,1.12,1.25,1.68,2.96,1.68,5.15v8.77c0,.21-.07,.39-.2,.53-.14,.15-.32,.22-.55,.22h-2.81c-.21,0-.39-.07-.53-.22-.15-.15-.22-.32-.22-.53v-8.58c0-1.21-.3-2.15-.89-2.82-.59-.68-1.44-1.01-2.54-1.01s-1.91,.34-2.56,1.03c-.65,.69-.97,1.62-.97,2.81v8.58c0,.21-.07,.39-.2,.53-.14,.15-.32,.22-.55,.22h-2.78c-.21,0-.38-.07-.53-.22Z"/><path class="cls-2" d="M763.13,146.39c-.15-.15-.22-.32-.22-.53v-2.28c0-.23,.07-.42,.22-.56,.15-.15,.32-.22,.53-.22h2.87c.23,0,.42,.07,.56,.22,.15,.15,.22,.33,.22,.56v2.28c0,.21-.08,.38-.23,.53-.16,.15-.34,.22-.55,.22h-2.87c-.21,0-.39-.07-.53-.22Zm.13,18.87c-.15-.15-.22-.32-.22-.53v-14.73c0-.23,.07-.41,.22-.55,.15-.14,.32-.2,.53-.2h2.65c.21,0,.38,.07,.53,.22,.15,.15,.22,.32,.22,.53v14.73c0,.21-.07,.39-.22,.53s-.32,.22-.53,.22h-2.65c-.21,0-.38-.07-.53-.22Z"/><path class="cls-2" d="M771.9,165.26c-.15-.15-.22-.32-.22-.53v-14.73c0-.23,.07-.41,.22-.55,.15-.14,.32-.2,.53-.2h2.59c.23,0,.41,.07,.55,.2s.2,.32,.2,.55v1.28c1.27-1.56,3.01-2.34,5.21-2.34,1.91,0,3.43,.62,4.55,1.87,1.12,1.25,1.68,2.96,1.68,5.15v8.77c0,.21-.07,.39-.2,.53-.14,.15-.32,.22-.55,.22h-2.81c-.21,0-.39-.07-.53-.22-.15-.15-.22-.32-.22-.53v-8.58c0-1.21-.3-2.15-.89-2.82-.59-.68-1.44-1.01-2.54-1.01s-1.91,.34-2.56,1.03c-.65,.69-.97,1.62-.97,2.81v8.58c0,.21-.07,.39-.2,.53-.14,.15-.32,.22-.55,.22h-2.78c-.21,0-.38-.07-.53-.22Z"/><path class="cls-2" d="M794.75,165.01c-1.28-.52-2.31-1.3-3.09-2.34-.78-1.04-1.19-2.3-1.23-3.78,0-.19,.06-.35,.19-.48,.13-.14,.29-.2,.5-.2h3.03c.48,0,.78,.26,.9,.78,.17,1.08,.61,1.88,1.33,2.4,.72,.52,1.63,.78,2.73,.78,1.29,0,2.28-.42,2.98-1.26s1.05-2.02,1.05-3.54v-9.98h-10.58c-.21,0-.39-.07-.53-.22-.15-.15-.22-.33-.22-.56v-2.22c0-.23,.07-.41,.22-.55,.15-.14,.32-.2,.53-.2h14.32c.23,0,.41,.07,.55,.22,.13,.15,.2,.33,.2,.56v13.07c0,1.73-.35,3.21-1.06,4.46-.71,1.25-1.71,2.2-3.01,2.85-1.3,.66-2.82,.98-4.57,.98-1.54,0-2.95-.26-4.23-.78Z"/><path class="cls-2" d="M814,165.15c-.88-.43-1.58-1-2.09-1.73-.51-.73-.76-1.53-.76-2.4,0-1.41,.57-2.56,1.72-3.43,1.14-.87,2.71-1.47,4.71-1.78l4.27-.62v-.66c0-.89-.23-1.57-.69-2.03s-1.19-.69-2.18-.69c-.69,0-1.24,.12-1.65,.37-.42,.25-.75,.5-1.01,.76-.26,.26-.43,.43-.51,.52-.08,.25-.24,.37-.47,.37h-2.43c-.19,0-.35-.06-.48-.19-.14-.13-.2-.29-.2-.5,.02-.52,.28-1.11,.76-1.76,.49-.66,1.24-1.23,2.26-1.72s2.28-.73,3.78-.73c2.45,0,4.24,.55,5.37,1.65s1.68,2.55,1.68,4.34v9.8c0,.21-.07,.39-.2,.53-.14,.15-.32,.22-.55,.22h-2.59c-.21,0-.39-.07-.53-.22-.15-.15-.22-.32-.22-.53v-1.22c-.46,.67-1.1,1.21-1.93,1.64-.83,.43-1.87,.64-3.12,.64-1.06,0-2.03-.21-2.92-.64Zm6.79-3.48c.73-.75,1.09-1.83,1.09-3.24v-.62l-3.12,.5c-2.39,.37-3.59,1.18-3.59,2.4,0,.67,.28,1.18,.83,1.54s1.21,.55,1.98,.55c1.14,0,2.08-.37,2.81-1.12Z"/></g></g></g></svg>