<?xml version="1.0" encoding="UTF-8"?><svg id="Layer_2" xmlns="http://www.w3.org/2000/svg" viewBox="0 0 843.79 172.39"><defs><style>.cls-1{fill:none;}.cls-2{fill:orange;}.cls-3{fill:#ffb833;}.cls-4{fill:#19ff00;}.cls-5{fill:#282936;}</style></defs><g id="Layer_1-2"><g><polygon class="cls-1" points="590.25 63.29 590.25 62.71 590.96 62.71 590.96 60.39 593.66 60.39 593.66 59.81 588.14 59.81 588.14 58.65 591.55 58.65 591.55 56.33 587.08 56.33 587.08 54.59 590.02 54.59 590.02 53.43 579.57 53.43 579.57 51.7 577.58 51.7 577.58 52.28 577.93 52.28 577.93 53.43 577.34 53.43 577.34 55.75 580.63 55.75 580.63 57.49 580.16 57.49 580.16 59.81 585.56 59.81 585.56 60.97 578.4 60.97 578.4 61.55 580.51 61.55 580.51 63.29 580.63 63.29 580.63 65.03 581.62 65.03 595.5 63.29 590.25 63.29"/><polygon class="cls-1" points="573.47 65.61 573.47 66.05 577 65.61 573.47 65.61"/><polygon class="cls-1" points="588.02 70.25 588.02 69.73 584.35 70.25 588.02 70.25"/><polygon class="cls-1" points="632.51 64.45 629.58 64.45 630.75 66.19 627.7 66.19 629.11 68.51 626.88 68.51 627.93 70.25 629.22 70.25 630.4 71.99 633.45 71.99 633.8 72.57 635.56 72.57 635.56 71.99 639.08 71.99 639.08 70.25 635.68 70.25 635.68 68.51 636.5 68.51 636.5 66.19 638.85 66.19 638.85 64.45 641.67 64.45 641.67 63.29 636.03 63.29 636.03 62.97 631.96 63.55 632.51 64.45"/><polygon class="cls-1" points="207.75 66.77 216.79 66.77 216.79 67.93 218.08 67.93 218.08 70.25 219.84 70.25 219.84 70.83 219.26 70.83 219.26 71.99 220.31 71.99 220.31 74.31 219.96 74.31 219.96 74.89 219.38 74.89 219.38 76.05 218.08 76.05 218.08 80.1 213.15 80.1 213.15 82.42 218.08 82.42 218.08 84.16 222.19 84.16 222.19 85.9 225.6 85.9 225.6 87.64 229.94 87.64 229.94 85.9 233.93 85.9 233.93 84.16 229.7 84.16 229.7 82.42 239.09 82.42 239.09 80.1 238.74 80.1 238.74 78.37 237.33 78.37 237.33 76.05 236.39 76.05 236.39 74.89 236.51 74.89 236.51 74.31 237.92 74.31 237.92 71.99 237.45 71.99 237.45 70.83 234.63 70.83 234.63 70.25 229.94 70.25 229.94 67.93 221.37 67.93 221.37 66.77 229.59 66.77 229.59 65.61 235.57 65.61 235.57 64.45 197.19 64.45 197.19 65.61 207.75 65.61 207.75 66.77"/><path class="cls-1" d="M235.1,88.22h-12.09v2.32h-9.86v2.32h-3.76v.58h4.34v2.32h5.16v1.22c0,.35,.04,.72,.12,1.1h.94l.35,1.74h-.12c.16,.77,.59,1.55,1.29,2.32h-.82c.31,.46,.7,.85,1.17,1.16h-.59c1.33,1.01,3.21,1.51,5.63,1.51s4.19-.5,5.52-1.51h-1.29c.47-.31,.86-.7,1.17-1.16h-1.76c.47-.62,.9-1.39,1.29-2.32h2.47c.16-.31,.25-.6,.29-.87,.04-.27,.1-.56,.18-.87h-4.69c.08-.39,.14-.75,.18-1.1,.04-.35,.06-.71,.06-1.1v-.12h6.46v-2.32h-1.06v-.58h.82v-2.32h9.51v-2.32h5.99v-.58h-16.9v.58Z"/><polygon class="cls-1" points="678.17 52.28 675.35 52.28 675.35 49.96 684.62 49.96 684.62 48.8 670.3 48.8 670.3 50.54 671.01 50.54 671.01 51.7 661.85 51.7 661.85 53.43 669.01 53.43 669.01 54.08 678.17 52.93 678.17 52.28"/><path class="cls-1" d="M664.08,66.19v2.32h-.82v1.74h3.4v1.74h-3.52v.58h8.22v.58h-4.34v1.16h-1.17v1.74h-3.87v2.32h-3.99v1.16h6.1v.58h3.99v1.74h-1.06v1.16h-2.11v1.74h-.7v.58h-4.23v2.32h7.39v1.16h-11.62v2.32h6.92v1.16h-3.05v.58h4.46v1.74h-.12v.58h3.76v.58h-2.58v2.32h.24v2.32h3.29v.58h-5.63v.58h3.4v1.74h-5.4v.58h1.88v2.32h3.64v1.16h3.87v.58h-7.51v2.32h4.81v1.74h-2.46v.58h15.26c-.16-.31-.31-.6-.47-.87-.16-.27-.31-.56-.47-.87h-8.22c-.16-.31-.29-.6-.41-.87-.12-.27-.25-.56-.41-.87h3.87c-.08-.31-.18-.6-.29-.87-.12-.27-.22-.56-.29-.87h3.99l-.24-.58h4.11l-.35-1.16h-14.44c0-.23-.04-.42-.12-.58h3.17l-.35-1.74h2.93c-.08-.31-.14-.6-.18-.87-.04-.27-.06-.56-.06-.87h.35c0-.31-.02-.6-.06-.87-.04-.27-.06-.56-.06-.87v-.12c0-.23,.08-.58,.23-1.04h.82c.55-1,1.33-1.51,2.35-1.51h23.94c1.49,0,2.7,.5,3.64,1.51h-.94l.82,1.16c.08,.16,.16,.33,.23,.52,.08,.19,.16,.37,.23,.52l.35,.7h-.35c.39,.7,.74,1.28,1.06,1.74h-2.82c.55,.77,1.33,1.35,2.35,1.74h-3.17c.7,.31,1.72,.46,3.05,.46,1.17,0,2.11-.15,2.82-.46h1.88c.94-.39,1.68-.97,2.23-1.74h5.75c.39-.54,.7-1.12,.94-1.74h-1.06c.08-.23,.16-.5,.23-.81,.08-.31,.16-.62,.24-.93h-.35c.08-.15,.12-.33,.12-.52s.04-.41,.12-.64h-5.28c0-.31,.02-.6,.06-.87,.04-.27,.06-.56,.06-.87h-5.05v-.58h-2.7v-1.74h18.43v-1.74h-10.8v-1.74h-4.81v-.58h10.92v-2.32h-.47v-.58h2.11v-1.74h1.41v-1.16h-6.57v-1.16h7.39v-2.32h2.11v-1.16h-9.04v-.58h2.93v-2.32h-2v-1.74h1.29v-2.32h.35v-1.74h.12v-1.74h3.52v-.35h-34.86c-1.1,0-2-.46-2.7-1.39h-4.11l-.35-.58h-3.87c-.16-.46-.24-.85-.24-1.16v-1.16h-8.69v1.16h-2.35Z"/><path class="cls-1" d="M78.41,71.41h-14.08c-.08-.23-.2-.44-.35-.64-.16-.19-.31-.37-.47-.52h-26.64c-.08,.16-.18,.33-.29,.52-.12,.19-.25,.41-.41,.64h24.3l-.23,.58h-3.76c-.16,.31-.28,.68-.35,1.1-.08,.43-.16,.83-.23,1.22h21.01l-.35-.81c-.08-.31-.16-.58-.24-.81-.08-.23-.2-.46-.35-.7h2.82l-.35-.58Z"/><polygon class="cls-1" points="670.42 58.65 670.42 59.81 670.54 59.81 676.17 59.81 676.17 57.49 689.67 57.49 689.67 55.42 666.72 58.65 670.42 58.65"/><path class="cls-1" d="M60.33,67.23c-1.57,0-2.93,.23-4.11,.7h8.33c-1.25-.46-2.66-.7-4.23-.7Z"/><path class="cls-1" d="M147.66,80.68h3.52v-1.16c0-.39-.04-.77-.12-1.16h-2.11c0-.15-.02-.27-.06-.35-.04-.08-.06-.15-.06-.23h2.82v-.58h-3.17c0-.15-.02-.27-.06-.35-.04-.08-.06-.15-.06-.23v-.58h1.41c0-.39-.02-.79-.06-1.22-.04-.42-.1-.79-.18-1.1h-1.53c-.08-.31-.16-.6-.24-.87-.08-.27-.2-.56-.35-.87h1.64c-.24-.62-.55-1.2-.94-1.74h-6.1c-.39-.62-1.02-1.2-1.88-1.74h4.93c-.47-.31-.82-.5-1.06-.58h.35c-1.17-.46-2.46-.7-3.87-.7s-2.7,.23-3.87,.7h-3.4c-.31,.08-.71,.27-1.17,.58h3.29c-.63,.39-1.25,.97-1.88,1.74h.23c-.39,.54-.7,1.12-.94,1.74h.35c-.08,.31-.16,.6-.23,.87-.08,.27-.2,.56-.35,.87h.24c-.08,.31-.14,.68-.18,1.1-.04,.43-.06,.83-.06,1.22h-.23v1.16h1.41v.58h-1.88v.58h-5.16v2.32h4.34v1.74h.82v2.32h-.7v2.32h.59v1.74h.12c0,.23,.04,.43,.12,.58h-2.35v.58h4.11v1.16h-2.35v1.74h.35v.58h-.82c0,.39,.02,.77,.06,1.16,.04,.39,.06,.77,.06,1.16h1.64v1.33c0,.35,.04,.68,.12,.99h-.82c.08,.16,.12,.35,.12,.58s.04,.43,.12,.58h.7c.08,.39,.19,.77,.35,1.16,.16,.39,.31,.77,.47,1.16h-.59c.47,.85,1.1,1.62,1.88,2.32h.24c.16,.08,.31,.17,.47,.29,.16,.12,.31,.21,.47,.29h1.06c.24,.08,.47,.17,.7,.29,.24,.12,.47,.21,.7,.29h-1.41c.94,.31,2.03,.46,3.29,.46s2.35-.15,3.29-.46h2c.24-.08,.47-.17,.7-.29,.24-.12,.47-.21,.71-.29h-1.88c.16-.08,.31-.17,.47-.29,.16-.12,.31-.21,.47-.29h-1.29c.7-.54,1.33-1.31,1.88-2.32h1.06c.39-.85,.7-1.62,.94-2.32h-1.17c.08-.15,.12-.35,.12-.58s.04-.42,.12-.58h.59c.08-.31,.12-.64,.12-.99v-1.33h.23v-1.16c0-.39,.04-.77,.12-1.16h-.12v-.58h3.4v-1.74h-5.63v-1.16h3.29v-.58h-.94v-.58h2.46v-1.74h1.06v-2.32h1.06v-2.32h-5.87v-1.74Z"/><path class="cls-1" d="M88.97,70.25h6.81l.12,1.16h5.91c0-.09,0-.2,.02-.29,.04-.27,.1-.56,.18-.87h-.23c.08-.31,.16-.6,.23-.87,.08-.27,.16-.56,.24-.87h-3.29c0-.15,.02-.27,.06-.35,.04-.08,.06-.15,.06-.23h-10.45l.35,2.32Z"/><polygon class="cls-1" points="663.61 63.29 664.44 63.29 669.25 63.29 679.34 63.29 679.34 62.13 669.6 62.13 669.6 60.39 663.61 60.39 663.61 63.29"/><path class="cls-1" d="M39.44,101.03c.16,.35,.35,.72,.59,1.1h6.69c.16,.23,.31,.45,.47,.64,.16,.19,.31,.37,.47,.52h-.23l.59,.58h2c.16,.08,.31,.17,.47,.29,.16,.12,.31,.21,.47,.29h1.88c1.33,.7,2.93,1.04,4.81,1.04s3.44-.35,4.69-1.04h-3.87l.94-.58h.7l.7-.58h-3.05c.16-.15,.33-.33,.53-.52,.19-.19,.33-.41,.41-.64h1.29c.47-.7,.86-1.47,1.17-2.32h.82l.23-.58c.16-.46,.31-.85,.47-1.16h-15.02l.35,1.74h-9.04c.16,.46,.31,.87,.47,1.22Z"/><polygon class="cls-1" points="643.31 73.15 643.78 73.15 643.78 72.57 642.96 72.57 643.31 73.15"/><polygon class="cls-1" points="183.81 90.54 193.67 90.54 193.67 88.22 205.76 88.22 205.76 87.64 196.25 87.64 196.25 85.9 192.85 85.9 192.85 84.16 188.74 84.16 188.74 82.42 184.04 82.42 184.04 84.74 182.99 84.74 182.99 87.06 181.93 87.06 181.93 88.8 179.47 88.8 179.47 89.38 180.41 89.38 180.41 89.96 177.12 89.96 177.12 91.12 182.75 91.12 182.75 92.86 183.81 92.86 183.81 90.54"/><path class="cls-1" d="M193.55,112.57c-.16-.31-.29-.6-.41-.87-.12-.27-.25-.56-.41-.87h.24c-.16-.39-.31-.77-.47-1.16-.16-.39-.31-.77-.47-1.16h-.47l-.23-.58h-.47c-.31-.7-.55-1.47-.7-2.32h-.23c-.08-.39-.16-.77-.24-1.16-.08-.39-.16-.77-.23-1.16h.59c-.08-.15-.12-.35-.12-.58s-.04-.42-.12-.58h.82l-.24-2.32h.24c-.08-.31-.12-.6-.12-.87v-.87h-.94v-2.32h-5.16v-2.32h-4.34v-.58h-.7v.58h.12c0,.39-.02,.77-.06,1.16-.04,.39-.06,.77-.06,1.16h-.12c-.08,.23-.12,.58-.12,1.04v1.28h-.59c-.08,.16-.12,.35-.12,.58v.58h1.17l-.35,2.32h-1.06c-.08,.39-.14,.77-.18,1.16-.04,.39-.14,.77-.29,1.16h1.29c0,.08-.02,.16-.06,.23-.04,.08-.06,.19-.06,.35h1.76c0,.08-.02,.16-.06,.23-.04,.08-.06,.19-.06,.35h-2.11c-.08,.31-.16,.6-.24,.87-.08,.27-.16,.56-.23,.87h-.35l-.7,1.74h-1.29c-.08,.31-.2,.6-.35,.87-.16,.27-.31,.56-.47,.87h1.06c-.16,.39-.35,.77-.59,1.16h-.71c-.08,.31-.22,.6-.41,.87-.2,.27-.37,.56-.53,.87h3.64l-.82,1.16h-4.34l-1.29,1.74h1.29l-.33,.35,22.22-2.78-.64-1.05h.24Z"/><polygon class="cls-1" points="636.62 74.31 633.45 74.31 634.5 76.05 638.26 76.05 638.26 74.31 639.43 74.31 639.43 73.15 635.91 73.15 636.62 74.31"/><path class="cls-1" d="M265.86,90.54v2.32h-.82v.58h1.06v2.32h-6.46v.58c0,.31-.02,.6-.06,.87-.04,.27-.06,.56-.06,.87h4.7c0,.31-.02,.6-.06,.87-.04,.27-.06,.56-.06,.87h-2.47l-.35,2.32h1.88c-.08,.16-.12,.35-.12,.58s-.04,.43-.12,.58h1.41c-.08,.39-.16,.77-.23,1.16-.03,.13-.05,.25-.08,.38l7.54-.94c.08-4.45,.72-8.91,1.9-13.35h-7.6Z"/><path class="cls-1" d="M277.92,58.65h-6.55v1.74h-5.52v1.16h-1.06v2.32h-12.21v.58h12.32v1.16h-5.99v1.16h-8.22v1.16h8.57v2.32h4.69v.58h2.82v1.16h.47v2.32h-1.41v.58h-.12v1.16h.94v2.32h1.41v1.74h.35v2.32h-9.39v1.74h4.23v1.74h-3.99v1.74h15.03c.96-3.03,2.17-6.05,3.61-9.05v-19.94Z"/><polygon class="cls-1" points="622.88 100.4 621.36 98.08 621.01 98.08 619.48 95.76 622.06 95.76 621.59 95.18 618.54 95.18 618.54 95.76 618.42 95.76 618.42 98.08 620.3 98.08 620.3 100.4 617.96 100.4 617.96 100.98 626.52 100.98 626.17 100.4 622.88 100.4"/><path class="cls-1" d="M188.74,80.1v-4.06h1.29v-1.16h.59v-.58h.35v-2.32h-1.06v-1.16h.59v-.58h-1.76v-2.32h-1.29v-1.16h-9.04v-.58h-.82l.24,.58h.23l.35,1.16h-.35c0,.08,.02,.16,.06,.23,.04,.08,.06,.19,.06,.35h-4.93c.16,.31,.25,.6,.29,.87,.04,.27,.1,.56,.18,.87h6.1c.08,.31,.14,.6,.18,.87,.04,.27,.06,.56,.06,.87h-1.64c.08,.31,.14,.6,.18,.87,.04,.27,.06,.56,.06,.87h1.53l.23,2.32h-1.53v.35c0,.08,.02,.19,.06,.35,.04,.16,.06,.31,.06,.46h3.17v.58h-2.82c.08,.16,.12,.35,.12,.58h2.11c.08,.39,.12,.77,.12,1.16v1.16h-3.52v1.74h5.63v-2.32h4.93Z"/><polygon class="cls-1" points="803.88 89.38 801.88 89.38 801.18 87.06 801.53 87.06 801.06 85.32 799.77 85.32 799.07 83 795.31 83 795.08 82.42 798.95 82.42 798.6 81.26 798.48 81.26 797.89 79.53 794.14 79.53 793.67 81.26 791.08 81.26 790.73 82.42 793.31 82.42 793.2 83 793.55 83 792.84 85.32 791.55 85.32 790.97 87.06 792.02 87.06 791.32 89.38 789.56 89.38 789.21 90.54 793.78 90.54 793.08 92.86 789.32 92.86 789.09 93.44 790.38 93.44 790.26 93.79 803.53 93.79 803.41 93.44 804 93.44 803.88 92.86 801.53 92.86 800.83 90.54 804.23 90.54 803.88 89.38"/><polygon class="cls-1" points="796.37 78.95 795.78 76.97 795.19 78.95 796.37 78.95"/><polygon class="cls-1" points="793.31 76.63 798.13 76.63 797.54 74.89 798.48 74.89 798.13 73.73 792.84 73.73 792.49 74.89 793.9 74.89 793.31 76.63"/><polygon class="cls-1" points="633.68 78.37 634.39 78.37 634.39 76.05 632.27 76.05 633.68 78.37"/><path class="cls-4" d="M258.27,116.15l.73-.1h-.65s-.05,.07-.08,.1Z"/><path class="cls-5" d="M107.4,73.15c0-.39-.04-.77-.12-1.16h2.82v-.58h-8.29c-.02,.19-.04,.37-.04,.58h.35c-.08,.31-.14,.6-.18,.87-.04,.27-.06,.56-.06,.87h.23l-.06,.58h5.34v-1.16Z"/><path class="cls-5" d="M259.75,116.05s.05-.08,.07-.12l-.83,.12h.76Z"/><g><path class="cls-3" d="M541.82,56.52c-9.85-44.68-78.08-67.62-152.39-51.23-34.6,7.63-64.41,22.45-85.41,40.61h12.63c10.96,0,19.58,2.4,25.88,7.19,6.3,4.79,9.45,11.87,9.45,21.22s-3.12,16.15-9.36,20.67l-.03,.02c-6.26,4.52-14.91,6.78-25.94,6.78h-8.22v22.15c0,.85-.31,1.58-.94,2.2-.63,.62-1.37,.93-2.23,.93h-24.18c-.86,0-1.6-.31-2.23-.93-.63-.62-.94-1.35-.94-2.2v-45.35c-1.44,2.99-2.65,6.01-3.61,9.05-.31,.97-.6,1.93-.85,2.9-1.18,4.44-1.82,8.9-1.9,13.35-.06,3.44,.21,6.87,.84,10.27,.11,.57,.21,1.14,.34,1.71,9.85,44.68,78.08,67.62,152.39,51.23,34.79-7.67,64.74-22.6,85.75-40.9-.67-.53-1.24-1.12-1.69-1.79l-19.84-29.57v29.11c0,.85-.31,1.58-.94,2.2-.63,.62-1.37,.93-2.23,.93h-21.25c-.86,0-1.6-.31-2.23-.93-.63-.62-.94-1.35-.94-2.2V49.03c0-.85,.31-1.58,.94-2.2,.63-.62,1.37-.93,2.23-.93h18.54c2.19,0,3.79,.89,4.81,2.67l16.14,26.14,3.7,5.98v-31.66c0-.85,.31-1.58,.94-2.2,.63-.62,1.37-.93,2.23-.93h21.25c.86,0,1.6,.31,2.23,.93,.62,.62,.94,1.35,.94,2.2v46.62c3.29-6.41,5.53-12.94,6.59-19.49,.34-2.1,.56-4.19,.65-6.29,.2-4.47-.16-8.94-1.13-13.36Z"/><path class="cls-2" d="M319.82,78.78c1.1-1.04,1.64-2.61,1.64-4.7,0-1.78-.43-3.32-1.29-4.64-.86-1.31-2.23-1.97-4.11-1.97h-8.22v12.87h8.22c1.41,0,2.66-.52,3.76-1.57Z"/></g><rect class="cls-5" x="277.92" y="56.33" width="2.61" height="2.32"/><polygon class="cls-5" points="167.85 65.61 178.41 65.61 178.41 66.19 179.35 66.19 179 65.03 177.82 65.03 177.56 64.45 167.85 64.45 167.85 65.61"/><polygon class="cls-5" points="577.34 51.7 577.58 51.7 577.58 51.12 578.52 51.12 578.52 50.54 577.46 50.54 577.34 50.54 577.34 51.7"/><rect class="cls-5" x="589.32" y="70.25" width="1.88" height="1.74"/><path class="cls-5" d="M752.47,47.64c-.19-.37-.44-.68-.73-.95l-6.77,.95h7.5Z"/><polygon class="cls-5" points="665.26 112.57 663.97 112.57 664.75 113.73 665.26 113.73 665.26 112.57"/><polygon class="cls-5" points="669.6 59.81 669.6 60.39 670.54 60.39 670.54 59.81 670.42 59.81 669.6 59.81"/><polygon class="cls-5" points="664.44 65.03 666.43 65.03 666.43 64.45 669.25 64.45 669.25 63.29 664.44 63.29 664.44 65.03"/><path class="cls-5" d="M670.3,48.8v-.58h-2.19c-.03,.17-.04,.36-.04,.58h2.23Z"/><g><g><path class="cls-5" d="M449.74,29.07c-.59,1.8-1.18,3.61-1.91,5.84,5.82,1.95,11.33,3.8,18.4,6.17-5.82,1.31-9.95,2.25-15.12,3.42,3.02,3.45,5.6,6.4,8.72,9.97-8.56-.86-16.11-1.63-24.91-2.52,7.02,8.19,12.41,15.97,13.57,26.35-28.73-10.29-56.88-10.62-85.93,.2,1.46-1.47,2.68-3.79,4.41-4.26,10.18-2.8,20.46-5.23,30.74-7.64,2.17-.51,4.48-.39,6.68-1.08-12.88-1.88-25.49-.07-38.18,3.37,5.93-19.32,29.29-31.76,49.73-25.95,6.5,1.85,9.95,.42,14.55-3.89,5.11-4.79,11.72-7.96,17.68-11.83,.53,.62,1.05,1.23,1.58,1.85Z"/><path class="cls-5" d="M366.06,101.85c26.77,9.68,52.24,9.42,77.82,1.46l.75,1.8c-4.2,1.71-8.3,3.72-12.62,5.06-4.49,1.4-9.15,2.37-13.8,3.15-4.77,.8-9.62,1.13-14.44,1.66l.18,1.76c11.06-.89,22.12-1.78,33.63-2.7-10.02,10.72-22.38,15.34-36.76,13.63-15.73-1.87-27.14-10.3-34.77-25.82Z"/><path class="cls-5" d="M376.07,83.31c5.35,1.47,9.27,2.55,13.18,3.62l.07,1.24c-2.75,1.08-5.51,2.16-8.7,3.42-1.42-2.58-2.64-4.81-4.55-8.28Z"/><path class="cls-5" d="M430.96,91.62c-3.26-1.33-5.91-2.41-10.18-4.15,5.39-1.59,9.27-2.73,14.67-4.32-1.8,3.39-2.98,5.61-4.5,8.48Z"/></g><path class="cls-5" d="M369.5,39.52c2.29-1.24,4.26-2.3,6.24-3.37l.29,.42c-1.55,1.64-3.11,3.28-4.77,5.03,.78,1.14,1.52,2.22,2.29,3.34-2.39,2.66-4.75,5.27-7.22,8.01-1.21-1.5-2.41-2.97-3.76-4.63-2.15,1.18-4.28,2.34-6.41,3.51l-.28-.38,5.07-5.31c-9.94-12.9-19.87-25.79-29.84-38.72,3.77-1.04,6.7-2.95,8.41-6.74,9.93,12.87,19.87,25.76,29.97,38.84Zm-17.13-7.46c3.11,.05,5.04-1.22,5.64-4.38-3.21-.23-4.94,1.31-5.64,4.38Zm-5.52-19.09c-3.3-.04-5.14,1.35-5.76,4.41q4.04-.48,5.76-4.41Zm-2.86-3.67c-3.06-.03-5.1,1.15-5.66,4.38,3.27,.28,4.92-1.39,5.66-4.38Zm11.17,14.82c-4.04,.14-5.22,1.15-5.18,4.3,2.88,0,4.61-1.44,5.18-4.3Zm-2.71-3.88c-3.16,.08-5.12,1.32-5.67,4.41,3.18,.26,4.92-1.29,5.67-4.41Zm11.21,14.77c-3.22-.2-4.98,1.29-5.65,4.39,3.15,.06,5.03-1.29,5.65-4.39Zm-19.85-13.9c3.17,.02,5.12-1.24,5.72-4.39-3.2-.28-4.86,1.34-5.72,4.39Zm17.1,10.14c-3.18,.07-5.12,1.26-5.6,4.39,3.22,.21,4.87-1.37,5.6-4.39Zm-.11,11.88q4.26-.72,5.76-4.49c-3.2-.22-4.99,1.3-5.76,4.49Z"/></g><g><g><path class="cls-5" d="M277.92,123.94c0,.85,.31,1.58,.94,2.2,.63,.62,1.37,.93,2.23,.93h24.18c.86,0,1.6-.31,2.23-.93,.63-.62,.94-1.35,.94-2.2v-14.85l-30.52,4.3v10.55Z"/><path class="cls-5" d="M342.54,53.09c-6.3-4.79-14.93-7.19-25.88-7.19h-29.87s-.05,0-.07,0h-5.62c-.74,0-1.38,.24-1.94,.69h-1.52c-.16,.16-.31,.33-.47,.52-.16,.19-.27,.41-.35,.64h1.29c-.16,.46-.23,.85-.23,1.16h-2.11v.58h.82v.58h1.35v1.74h-5.69v.58h1.53v1.16h-1.53v.58h3.76v1.74h1.94v.47h.76v.11h1.64v2.2h-2.41v.11h-6.75v1.74h2.11v.58h-1.76v1.74h2.7v2.32h3.7v1.16h-9.92v2.32h-5.99v1.74h13.03v2.32h2.87v30.41l64.71-8.11c6.24-4.52,9.36-11.41,9.36-20.67s-3.15-16.43-9.45-21.22Zm-22.71,25.68c-1.1,1.04-2.35,1.57-3.76,1.57h-8.22v-12.87h8.22c1.88,0,3.25,.66,4.11,1.97,.86,1.32,1.29,2.86,1.29,4.64,0,2.09-.55,3.65-1.64,4.7Z"/></g><path class="cls-5" d="M101.88,73.73c0-.31,.02-.6,.06-.87,.04-.27,.1-.56,.18-.87h-.35c0-.21,.02-.39,.04-.58h-5.91l-.12-1.16h-6.81l-.35-2.32h10.68c-.16-.46-.23-.85-.23-1.16h-7.86c0-.15-.02-.27-.06-.35-.04-.08-.06-.15-.06-.23h2.58l-.35-1.16h-1.29l-.35-1.16h.59c-.08-.31-.2-.6-.35-.87-.16-.27-.31-.56-.47-.87h.24c-.16-.31-.31-.6-.47-.87-.16-.27-.31-.56-.47-.87h-.35c-.16-.31-.33-.6-.53-.87-.2-.27-.41-.56-.65-.87h-.82c-.31-.39-.63-.79-.94-1.22-.31-.42-.63-.79-.94-1.1h-1.06l-.59-.58h-1.17l-.59-.58h-.12l-.7-.58h-2.11l-1.41-1.16h2.93l-2.35-1.74h-1.29c-.08-.15-.2-.27-.35-.35-.16-.08-.31-.15-.47-.23h-2c-.16-.15-.31-.27-.47-.35-.16-.08-.31-.15-.47-.23h5.99c-.55-.31-1.1-.6-1.64-.87-.55-.27-1.13-.56-1.76-.87h-.35c-.78-.39-1.76-.77-2.93-1.16h2.23c-.31-.15-.61-.27-.88-.35-.28-.08-.57-.15-.88-.23h-3.52c-2.58-.85-5.17-1.43-7.75-1.74h3.05c-3.05-.46-6.22-.7-9.51-.7s-6.57,.23-9.62,.7h-3.17c-2.66,.31-5.17,.89-7.51,1.74h3.52c-.31,.08-.61,.16-.88,.23-.28,.08-.53,.19-.76,.35h-2.23c-.47,.16-.94,.33-1.41,.52-.47,.19-.94,.41-1.41,.64h.35c-.55,.31-1.1,.6-1.64,.87-.55,.27-1.1,.56-1.64,.87h-6.1c-.16,.08-.31,.16-.47,.23-.16,.08-.31,.19-.47,.35h2l-.94,.58h1.29c-.39,.31-.78,.6-1.17,.87-.39,.27-.78,.56-1.17,.87h-2.82c-.23,.16-.47,.35-.7,.58-.24,.23-.43,.43-.59,.58h2.11l-.23,.23c-.08,.08-.2,.19-.35,.35h.24l-.59,.58h1.17c-.08,.08-.16,.16-.24,.23-.08,.08-.16,.19-.23,.35h1.06c-.31,.31-.63,.68-.94,1.1-.31,.43-.63,.83-.94,1.22h.94c-.23,.31-.45,.6-.65,.87-.2,.27-.37,.56-.53,.87h.35l-1.06,1.74h-.12c-.08,.31-.2,.6-.35,.87-.16,.27-.31,.56-.47,.87h-.59l-.47,1.16h1.29c-.08,.16-.16,.35-.23,.58-.08,.23-.16,.43-.24,.58h-2.58l-.23,.58h7.86l-.35,1.16h4.81l-.59,2.32H5.28c-.08,.16-.12,.35-.12,.58s-.04,.43-.12,.58H29.34c0,.23-.04,.43-.12,.58h-3.76c-.08,.39-.14,.77-.18,1.16-.04,.39-.06,.77-.06,1.16h6.22v.87c0,.27-.04,.56-.12,.87v.58H8.8v.58h10.21v2.32h-4.23v1.16h.35v1.16h-1.76v2.32h5.63v.58H0v1.16H5.99v2.32h12.09v.58h-4.93v.58h-3.17v2.32h9.04c0,.31,.02,.6,.06,.87,.04,.27,.06,.56,.06,.87h3.29v.58H7.28v1.16H3.87v.58h15.26v.93c.08,.23,.12,.46,.12,.7v.7h-2.23c.08,.31,.12,.6,.12,.87s.04,.56,.12,.87H8.22l.35,2.32h6.69c.16,.46,.24,.85,.24,1.16h-.12c0,.23,.04,.43,.12,.58h2c0,.23,.04,.43,.12,.58h1.88c.08,.31,.16,.6,.23,.87,.08,.27,.16,.56,.24,.87h-3.64l.23,.58h-.94c.16,.31,.27,.6,.35,.87,.08,.27,.16,.56,.24,.87h1.53l.24,.58h-2.46l1.06,2.32h2.35l1.06,1.74h1.06l1.06,1.74h-.7c.63,.77,1.29,1.55,2,2.32h-.94c.08,.08,.18,.16,.29,.23,.12,.08,.21,.19,.29,.35h-5.17c.16,.08,.27,.16,.35,.23,.08,.08,.16,.19,.23,.35h23.71c.86,.85,1.76,1.62,2.7,2.32h-1.29c.39,.31,.82,.6,1.29,.87,.47,.27,.94,.56,1.41,.87H21.36c.78,.46,1.58,.87,2.41,1.22s1.62,.72,2.41,1.1h19.37l1.64,.58h-4.81c.31,.08,.6,.16,.88,.23,.27,.08,.57,.19,.88,.35h-8.45c2.66,.77,5.55,1.35,8.69,1.74h1.88c1.33,.15,2.68,.27,4.05,.35,1.37,.08,2.8,.12,4.28,.12,1.33,0,2.66-.04,3.99-.12,1.33-.08,2.62-.19,3.87-.35h-1.88c2.97-.39,5.87-.96,8.69-1.74h8.45c.31-.15,.62-.27,.94-.35,.31-.08,.63-.15,.94-.23h4.7c.31-.15,.6-.27,.88-.35,.27-.08,.53-.15,.76-.23h-19.37c.86-.39,1.72-.75,2.58-1.1,.86-.35,1.68-.75,2.46-1.22h24.77c1.1-.62,2.03-1.2,2.82-1.74h1.29c.55-.39,1.06-.77,1.53-1.16,.47-.39,.94-.77,1.41-1.16h-23.59l.59-.58h5.05c.16-.15,.27-.27,.35-.35,.08-.08,.16-.15,.23-.23h.94c.39-.39,.76-.77,1.12-1.16,.35-.39,.68-.77,1-1.16h.71l1.17-1.74h-1.06l1.06-1.74h-2.35c.23-.39,.45-.77,.65-1.16,.19-.39,.37-.77,.53-1.16h2.35c.16-.31,.24-.5,.24-.58h-1.41c.08-.31,.18-.6,.29-.87,.12-.27,.21-.56,.29-.87h.94c0-.15,.02-.27,.06-.35,.04-.08,.06-.15,.06-.23h3.64l.35-1.74h-3.87c0-.23,.04-.42,.12-.58h.7c.08-.15,.12-.35,.12-.58h-3.05l.12-1.16h1.29l.24-2.32h.82v-1.74h-17.37c-.23-1.47-1.1-2.2-2.58-2.2h-23.47v-.12h-15.26v-.58h3.4v-1.16h15.14v-.58h-3.29v-.87c0-.27-.04-.56-.12-.87h-9.04v-2.32h3.17v-.58h4.93v-.58h-12.09v-2.32h-5.99v-1.16h19.01v-.58h-5.63v-2.32h1.76v-1.16h-.35v-.58c0-.23,.04-.42,.12-.58h4.11v-1.16c0-.39,.04-.77,.12-1.16h-10.33v-.58h19.13c.31,.08,.62,.14,.94,.17,.31,.04,.62,.06,.94,.06h23.95c.23,0,.59-.08,1.06-.23,1.02-.54,1.53-1.31,1.53-2.32h15.2l.06-.58h-.23Zm-54.23,24.35h15.02c-.16,.31-.31,.7-.47,1.16l-.23,.58h-.82c-.31,.85-.71,1.62-1.17,2.32h-1.29c-.08,.23-.22,.45-.41,.64-.2,.19-.37,.37-.53,.52h3.05l-.7,.58h-.7l-.94,.58h3.87c-1.25,.7-2.82,1.04-4.69,1.04s-3.48-.35-4.81-1.04h-1.88c-.16-.08-.31-.17-.47-.29-.16-.12-.31-.21-.47-.29h-2l-.59-.58h.23c-.16-.15-.31-.33-.47-.52-.16-.19-.31-.41-.47-.64h-6.69c-.24-.39-.43-.75-.59-1.1-.16-.35-.31-.75-.47-1.22h9.04l-.35-1.74Zm12.68-30.84c1.56,0,2.97,.23,4.23,.7h-8.33c1.17-.46,2.54-.7,4.11-.7Zm15.96,5.45c.08,.23,.16,.5,.24,.81l.35,.81h-21.01c.08-.39,.16-.79,.23-1.22,.08-.42,.19-.79,.35-1.1h3.76l.23-.58h-24.3c.16-.23,.29-.44,.41-.64,.12-.19,.21-.37,.29-.52h26.64c.16,.16,.31,.33,.47,.52,.16,.19,.27,.41,.35,.64h14.08l.35,.58h-2.82c.16,.23,.27,.46,.35,.7Z"/><path class="cls-5" d="M172.07,116.05h-1.29l1.29-1.74h4.34l.82-1.16h-3.64c.16-.31,.33-.6,.53-.87,.19-.27,.33-.56,.41-.87h.71c.23-.39,.43-.77,.59-1.16h-1.06c.16-.31,.31-.6,.47-.87,.16-.27,.27-.56,.35-.87h1.29l.7-1.74h.35c.08-.31,.16-.6,.23-.87,.08-.27,.16-.56,.24-.87h2.11c0-.15,.02-.27,.06-.35,.04-.08,.06-.15,.06-.23h-1.76c0-.15,.02-.27,.06-.35,.04-.08,.06-.15,.06-.23h-1.29c.16-.39,.25-.77,.29-1.16,.04-.39,.1-.77,.18-1.16h1.06l.35-2.32h-1.17v-.58c0-.23,.04-.42,.12-.58h.59v-1.28c0-.46,.04-.81,.12-1.04h.12c0-.39,.02-.77,.06-1.16,.04-.39,.06-.77,.06-1.16h-.12v-.58h3.4v-1.74h-5.63v-1.16h3.29v-.58h-.94v-.58h2.46v-1.74h1.06v-2.32h1.06v-2.32h-5.87v-1.74h3.52v-1.16c0-.39-.04-.77-.12-1.16h-2.11c0-.23-.04-.42-.12-.58h2.82v-.58h-3.17c0-.15-.02-.31-.06-.46-.04-.15-.06-.27-.06-.35v-.35h1.53l-.23-2.32h-1.53c0-.31-.02-.6-.06-.87-.04-.27-.1-.56-.18-.87h1.64c0-.31-.02-.6-.06-.87-.04-.27-.1-.56-.18-.87h-6.1c-.08-.31-.14-.6-.18-.87-.04-.27-.14-.56-.29-.87h4.93c0-.15-.02-.27-.06-.35-.04-.08-.06-.15-.06-.23h.35l-.35-1.16h-.23l-.24-.58h.82v-.58h-10.56v-1.16h9.71l-.79-1.74h-.35c-.24-.39-.45-.79-.65-1.22-.2-.42-.41-.79-.65-1.1h.35l-.35-.58h-2l-.35-.58h1.88c-.08-.15-.24-.35-.47-.58h-.24l-1.41-1.74h-.82c-.24-.31-.47-.6-.7-.87-.24-.27-.51-.56-.82-.87h-.12c-.39-.39-.8-.79-1.23-1.22-.43-.42-.88-.79-1.35-1.1h-1.17c-.08-.15-.2-.27-.35-.35-.16-.08-.31-.15-.47-.23h-1.29c-.16-.15-.29-.27-.41-.35-.12-.08-.25-.15-.41-.23h2.93l-1.76-1.16h.47c-.78-.39-1.55-.79-2.29-1.22-.74-.42-1.55-.79-2.41-1.1h.47c-.78-.39-1.6-.71-2.46-.99-.86-.27-1.72-.52-2.58-.75h.7c-4.3-1.24-9.23-1.86-14.79-1.86-2.66,0-5.24,.16-7.75,.46-2.51,.31-4.89,.77-7.16,1.39h-.59c-1.88,.46-3.6,1.04-5.16,1.74h-.35c-.78,.31-1.57,.68-2.35,1.1-.78,.43-1.57,.83-2.35,1.22h-.35c-.31,.16-.63,.35-.94,.58-.31,.23-.63,.43-.94,.58h-2.93c-.16,.08-.29,.16-.41,.23-.12,.08-.25,.19-.41,.35h1.29l-.71,.58h1.17c-.47,.31-.92,.68-1.35,1.1-.43,.43-.84,.83-1.23,1.22l-1.53,1.74h.82l-1.41,1.74h.23l-.35,.58h-1.88l-.35,.58h1.88l-.35,.58h-.35c-.24,.31-.45,.68-.65,1.1-.2,.43-.41,.83-.65,1.22h.35c-.39,.85-.7,1.62-.94,2.32h1.17c-.08,.16-.16,.35-.23,.58-.08,.23-.16,.43-.23,.58h-1.76l-.24,.58h.24l-.35,1.16h-3.52c0,.08-.02,.16-.06,.23-.04,.08-.06,.19-.06,.35h3.29c-.08,.31-.16,.6-.24,.87-.08,.27-.16,.56-.23,.87h.23c-.08,.31-.14,.6-.18,.87-.01,.09-.01,.2-.02,.29h8.29v.58h-2.82c.08,.39,.12,.77,.12,1.16v1.16h-5.34l-.18,1.74h-.12v1.16h1.41v.58h-1.88c0,.23-.04,.43-.12,.58h-5.05v2.32h4.34v1.74h.82v2.32h-.7v2.32h.59v1.74h.12v.58h-2.23v.58h4.11v1.16h-2.35v1.74h.35v.58h-.82v1.16c0,.39,.04,.77,.12,1.16h1.53c0,.16,.02,.33,.06,.52,.04,.19,.06,.37,.06,.52v1.28h-.82l.12,1.16h.7c0,.39,.02,.77,.06,1.16,.04,.39,.1,.77,.18,1.16h-.59c.08,.39,.16,.77,.23,1.16,.08,.39,.16,.77,.24,1.16h.23c0,.08,.02,.16,.06,.23,.04,.08,.06,.19,.06,.35h1.17c0,.23,.04,.43,.12,.58h-1.29c.08,.31,.16,.6,.24,.87,.08,.27,.16,.56,.23,.87h-.35l.71,1.74h-1.41c.16,.31,.29,.6,.41,.87,.12,.27,.25,.56,.41,.87h1.06c.16,.39,.35,.77,.59,1.16h-.7c.16,.31,.31,.6,.47,.87,.16,.27,.31,.56,.47,.87h3.76l.7,1.16h-4.34l1.41,1.74h1.29c.24,.31,.49,.6,.76,.87,.27,.27,.57,.56,.88,.87h1.17c.16,.08,.27,.16,.35,.23,.08,.08,.16,.19,.23,.35h1.41l1.41,1.16h-2.23c.23,.16,.47,.35,.7,.58,.23,.23,.51,.43,.82,.58h.71l1.76,1.16h-.23c.7,.39,1.41,.77,2.11,1.16,.1,.06,.21,.11,.32,.17l54.05-6.77,.33-.35Zm-18.54-31.31h-1.06v2.32h-1.06v1.74h-2.46v.58h.94v.58h-3.29v1.16h5.63v1.74h-3.4v.58h.12c-.08,.39-.12,.77-.12,1.16v1.16h-.23v1.33c0,.35-.04,.68-.12,.99h-.59c-.08,.16-.12,.35-.12,.58s-.04,.43-.12,.58h1.17c-.23,.7-.55,1.47-.94,2.32h-1.06c-.55,1.01-1.17,1.78-1.88,2.32h1.29c-.16,.08-.31,.17-.47,.29-.16,.12-.31,.21-.47,.29h1.88c-.24,.08-.47,.17-.71,.29-.23,.12-.47,.21-.7,.29h-2c-.94,.31-2.04,.46-3.29,.46s-2.35-.15-3.29-.46h1.41c-.23-.08-.47-.17-.7-.29-.23-.12-.47-.21-.7-.29h-1.06c-.16-.08-.31-.17-.47-.29-.16-.12-.31-.21-.47-.29h-.24c-.78-.7-1.41-1.47-1.88-2.32h.59c-.16-.39-.31-.77-.47-1.16-.16-.39-.28-.77-.35-1.16h-.7c-.08-.15-.12-.35-.12-.58s-.04-.42-.12-.58h.82c-.08-.31-.12-.64-.12-.99v-1.33h-1.64c0-.39-.02-.77-.06-1.16-.04-.39-.06-.77-.06-1.16h.82v-.58h-.35v-1.74h2.35v-1.16h-4.11v-.58h2.35c-.08-.15-.12-.35-.12-.58h-.12v-1.74h-.59v-2.32h.7v-2.32h-.82v-1.74h-4.34v-2.32h5.16v-.58h1.88v-.58h-1.41v-1.16h.23c0-.39,.02-.79,.06-1.22,.04-.42,.1-.79,.18-1.1h-.24c.16-.31,.27-.6,.35-.87,.08-.27,.16-.56,.23-.87h-.35c.23-.62,.55-1.2,.94-1.74h-.23c.62-.77,1.25-1.35,1.88-1.74h-3.29c.47-.31,.86-.5,1.17-.58h3.4c1.17-.46,2.46-.7,3.87-.7s2.7,.23,3.87,.7h-.35c.24,.08,.59,.27,1.06,.58h-4.93c.86,.54,1.49,1.12,1.88,1.74h6.1c.39,.54,.7,1.12,.94,1.74h-1.64c.16,.31,.27,.6,.35,.87,.08,.27,.16,.56,.24,.87h1.53c.08,.31,.14,.68,.18,1.1,.04,.43,.06,.83,.06,1.22h-1.41v.58c0,.08,.02,.16,.06,.23,.04,.08,.06,.19,.06,.35h3.17v.58h-2.82c0,.08,.02,.16,.06,.23,.04,.08,.06,.19,.06,.35h2.11c.08,.39,.12,.77,.12,1.16v1.16h-3.52v1.74h5.87v2.32Z"/><g><path class="cls-5" d="M210.45,124.17h-2.46l1.29,.58h4.58c.23,.08,.49,.16,.76,.23,.27,.08,.53,.19,.76,.35h-15.38c.63,.23,1.25,.45,1.88,.64,.63,.19,1.29,.37,2,.52h11.85c1.02,.23,2.05,.45,3.11,.64s2.13,.37,3.23,.52h-14.2c1.33,.15,2.66,.27,3.99,.35,1.33,.08,2.7,.12,4.11,.12,1.33,0,2.68-.04,4.05-.12,1.37-.08,2.68-.19,3.93-.35h14.2c1.09-.16,2.17-.33,3.23-.52s2.09-.41,3.11-.64h-11.85c.7-.15,1.39-.33,2.05-.52,.66-.19,1.27-.41,1.82-.64h15.49c.23-.15,.47-.27,.7-.35,.23-.08,.51-.15,.82-.23h-4.58c.23-.15,.47-.27,.7-.35,.23-.08,.47-.15,.7-.23h2.35c.78-.39,1.53-.77,2.23-1.16,.71-.39,1.41-.77,2.11-1.16h-5.99l.94-.58h-7.16l1.53-1.16h-.7l.7-.58h7.75l.7-.58h-.23l1.76-1.74h1.06c.29-.28,.57-.64,.86-1.06l-49.76,7.01c.62,.34,1.27,.67,1.95,1.01Z"/><path class="cls-5" d="M179,65.03l.35,1.16h-.94v.58h9.04v1.16h1.29v2.32h1.76v.58h-.59v1.16h1.06v2.32h-.35v.58h-.59v1.16h-1.29v4.06h-4.93v2.32h4.93v1.74h4.11v1.74h3.4v1.74h9.51v.58h-12.09v2.32h-9.86v2.32h-3.76v.58h4.34v2.32h5.16v2.32h.94v.87c0,.27,.04,.56,.12,.87h-.24l.24,2.32h-.82c.08,.16,.12,.35,.12,.58s.04,.43,.12,.58h-.59c.08,.39,.16,.77,.23,1.16,.08,.39,.16,.77,.24,1.16h.23c.16,.85,.39,1.62,.7,2.32h.47l.23,.58h.47c.16,.39,.31,.77,.47,1.16,.16,.39,.31,.77,.47,1.16h-.24c.16,.31,.29,.6,.41,.87,.12,.27,.25,.56,.41,.87h-.24l.64,1.05,70.06-8.78c.03-.13,.05-.25,.08-.38,.08-.39,.16-.77,.23-1.16h-1.41c.08-.15,.12-.35,.12-.58s.04-.42,.12-.58h-1.88l.35-2.32h2.47c0-.31,.02-.6,.06-.87,.04-.27,.06-.56,.06-.87h-4.7c0-.31,.02-.6,.06-.87,.04-.27,.06-.56,.06-.87v-.58h6.46v-2.32h-1.06v-.58h.82v-2.32h7.6c.26-.97,.55-1.93,.85-2.9h-15.03v-1.74h3.99v-1.74h-4.23v-1.74h9.39v-2.32h-.35v-1.74h-1.41v-2.32h-.94v-1.16h.12v-.58h1.41v-2.32h-.47v-1.16h-2.82v-.58h-4.69v-2.32h-8.57v-1.16h8.22v-1.16h5.99v-1.16h-12.32v-.58h12.21v-2.32h1.06v-1.16h5.52v-1.74h6.55v-2.32h-7.25v-.58h-7.75v-1.16h1.76v-1.16h9.27v-1.16h-5.63v-2.32h-2.58v-.58h-2.46v-.46c0-.54-.12-.97-.35-1.28h2.7c-.55-1.24-1.53-1.86-2.93-1.86h-23.01c-1.41,0-2.39,.62-2.93,1.86h-2.58c-.16,.23-.23,.66-.23,1.28v.46h2.46v.58h2.58v2.32h5.63v1.16h-9.27v1.16h-1.76v1.16h7.75v.58h9.86v2.32h-9.16v1.74h-5.52v1.16h-1.06v2.32h-17.96v-2.32h2v-1.16h-1.29v-1.74h12.79v-2.32h-19.13v-.58h13.15v-1.16h-6.46v-1.16h-2.7v-1.16h8.69v-2.32h-5.17v-.58h-.23v-.46c0-.54-.12-.97-.35-1.28h-.7c-.55-1.24-1.49-1.86-2.82-1.86h-23.01c-1.41,0-2.39,.62-2.93,1.86h.7c-.16,.23-.24,.66-.24,1.28v.46h.24v.58h5.16v2.32h-8.69v1.16h2.7v1.16h6.46v1.16h-13.15v.58h19.13v2.32h-12.79v1.74h1.29v1.16h-2v2.32h8.57v.58h-19.16l.26,.58h1.17Zm73.01,22.61v.58h-5.99v2.32h-9.51v2.32h-.82v.58h1.06v2.32h-6.46v.12c0,.39-.02,.75-.06,1.1-.04,.35-.1,.72-.18,1.1h4.69c-.08,.31-.14,.6-.18,.87-.04,.27-.14,.56-.29,.87h-2.47c-.39,.93-.82,1.7-1.29,2.32h1.76c-.31,.46-.7,.85-1.17,1.16h1.29c-1.33,1.01-3.17,1.51-5.52,1.51s-4.3-.5-5.63-1.51h.59c-.47-.31-.86-.7-1.17-1.16h.82c-.71-.77-1.14-1.55-1.29-2.32h.12l-.35-1.74h-.94c-.08-.39-.12-.75-.12-1.1v-1.22h-5.16v-2.32h-4.34v-.58h3.76v-2.32h9.86v-2.32h12.09v-.58h16.9Zm-54.81-23.19h38.38v1.16h-5.99v1.16h-8.22v1.16h8.57v2.32h4.7v.58h2.82v1.16h.47v2.32h-1.41v.58h-.12v1.16h.94v2.32h1.41v1.74h.35v2.32h-9.39v1.74h4.23v1.74h-3.99v1.74h-4.34v-1.74h-3.4v-1.74h-4.11v-1.74h-4.93v-2.32h4.93v-4.06h1.29v-1.16h.59v-.58h.35v-2.32h-1.06v-1.16h.59v-.58h-1.76v-2.32h-1.29v-1.16h-9.04v-1.16h-10.56v-1.16Z"/></g><g><path class="cls-5" d="M588.02,70.25h-3.68l-36.35,5.12v.1h-.23v.58h-2.93v2.32h5.52v.58h.23v.58h-1.29v1.74h-.82v.58h3.87v2.32h-9.39v2.32h3.4v1.74h1.88v2.32h.24v2.32h-.94v2.9h1.06v1.16h-.7v1.74h-.12v.58h-.94v2.32h1.06v1.16h-.12v6.96h.12v2.32h2v2.32h-1.64v1.16h-.47v1.16h1.41v2.32h-2v.58h2.93v1.16h1.06v.58h-.94v1.74h-.47v.81c0,.39,.04,.7,.12,.93h-3.05c.08,.39,.31,.77,.7,1.16h3.29c.16,.31,.39,.5,.7,.58h-6.69c.39,.31,.94,.46,1.64,.46h23.95c.7,0,1.25-.15,1.64-.46h6.69c.16-.08,.39-.27,.7-.58h-3.29c.39-.39,.63-.77,.7-1.16h2.93c.08-.15,.14-.31,.18-.46,.04-.15,.06-.31,.06-.46v-.81h.47v-1.74h.94v-.58h-1.06v-1.16h-2.93v-.58h2v-2.32h-1.41v-1.16h.47v-1.16h1.64v-2.32h-2v-2.32h-.12v-6.96h.12v-1.16h-1.06v-2.32h.94v-.58h.12v-1.74h.7v-1.16h-1.06v-2.9h.94v-2.32h-.24v-2.32h-1.88v-1.74h-3.4v-2.32h9.39v-2.32h-3.87v-.58h.82v-1.74h1.29v-.58h-.23v-.58h-5.52v-2.32h2.93v-.58h.24v-.58h2.93v-2.32h-1.41v-.58h9.51v-1.74h-1.29Z"/><path class="cls-5" d="M573.47,65.61h3.53l4.63-.58h-.99v-1.74h-.12v-1.74h-2.11v-.58h7.16v-1.16h-5.4v-2.32h.47v-1.74h-3.29v-2.32h.59v-1.16h-.35v-.58h-.24v-1.16h.12v-1.62c0-.39-.08-.81-.23-1.28h.59c-.55-1.24-1.53-1.86-2.93-1.86h-23.94c-1.41,0-2.39,.62-2.93,1.86h-.59c-.16,.46-.23,.89-.23,1.28v1.62h1.06v.58h-.94v1.16h.35v1.16h-.59v2.32h3.29v1.74h-.47v2.32h5.4v1.16h-7.16v.58h2.11v1.74h.12v1.74h11.97v.58h-19.13v2.32h7.63v.96l22.65-2.84v-.44Z"/></g><g><path class="cls-5" d="M577.58,51.12v.58h2v1.74h10.45v1.16h-2.93v1.74h4.46v2.32h-3.4v1.16h5.52v.58h-2.7v2.32h-.71v.58h5.25l27.75-3.48h-1.54l-.7-1.16h3.4l-1.53-2.32h-4.34l-1.06-1.74h2.82l-.7-1.16h-10.45l-1.06-1.74h-2.23l-.7-1.16h7.86l-1.29-2.09c0-.08-.02-.12-.06-.12-.04,0-.06-.04-.06-.12h7.86c-.31-.46-.63-.85-.94-1.16h-2.11c-.39-.39-.9-.7-1.53-.93-.63-.23-1.37-.35-2.23-.35h-18.54c-1.1,0-1.96,.43-2.58,1.28h2.11c-.31,.46-.47,.85-.47,1.16h-7.86c-.08,.16-.12,.39-.12,.7v1.62h-6.69v.58h-.94Z"/><path class="cls-5" d="M665.26,112.57v-.58h2.46v-1.74h-4.81v-2.32h7.51v-.58h-3.87v-1.16h-3.64v-2.32h-1.88v-.58h5.4v-1.74h-3.4v-.58h5.63v-.58h-3.29v-2.32h-.24v-2.32h2.58v-.58h-3.76v-.58h.12v-1.74h-4.46v-.58h3.05v-1.16h-6.92v-2.32h11.62v-1.16h-7.39v-2.32h4.23v-.58h.7v-1.74h2.11v-1.16h1.06v-1.74h-3.99v-.58h-6.1v-1.16h3.99v-2.32h3.87v-1.74h1.17v-1.16h4.34v-.58h-8.22v-.58h3.52v-1.74h-3.4v-1.74h.82v-2.32h2.35v-1.16h-2v-1.74h-.82v-2.9h5.99v-.58h.82v-1.16h-3.7l-30.69,4.32v.32h5.63v1.16h-2.82v1.74h-2.35v2.32h-.82v1.74h3.4v1.74h-3.52v.58h-1.76l-.35-.58h-3.05l-1.17-1.74h-1.29l-1.06-1.74h2.23l-1.41-2.32h3.05l-1.17-1.74h2.93l-.55-.9-43.94,6.19v.52h3.17v1.74h1.17v.58h9.16v.58h-7.39v1.16h-3.17v1.74h-2.23v2.32h1.17v1.16h1.17v.58h3.05v1.74h-1.06v1.16h-2.11v1.74h-.71v.58h-4.22v2.32h7.39v1.16h-11.62v2.32h6.92v1.16h-3.05v.58h4.46v1.74h-.12v.58h.94v.58h-.12v2.32h1.88v2.32h-2.35v.58h6.22v.58h-5.63v1.74h-5.87v.58h7.98v2.32h1.17v1.16h.12v.58h-3.4v2.32h-5.52v1.74h6.46v1.74h-1.17v.58h-1.41v2.32h2.58v2.32h1.06v1.74h-4.81v1.16h4.11v2.32h-5.05c0,.31,.08,.62,.24,.93,.16,.31,.31,.58,.47,.81h3.87c.31,.31,.55,.5,.7,.58h-3.76c.39,.31,.98,.46,1.76,.46h21.25c.7,0,1.25-.15,1.64-.46h3.64c.16-.08,.39-.27,.71-.58h-3.76c.16-.23,.31-.5,.47-.81,.16-.31,.24-.62,.24-.93h5.16v-2.32h-4.11v-1.16h4.81v-1.74h-1.06v-2.32h-2.58v-2.32h1.41v-.58h1.17v-1.74h-6.46v-1.74h5.52v-2.32h3.4v-.58h-.12v-1.16h-1.17v-2.32h-7.98v-.58h5.87v-1.74h6.1l1.17,1.74h-5.4l.35,.58h2l1.53,2.32h3.64l.71,1.16h3.87l.35,.58h-7.39l1.53,2.32h4.81l1.17,1.74h-2.46l1.17,1.74h-5.4l.47,.58h4.11l1.53,2.32h-1.76l1.64,2.32h13.5l1.17,1.74h.59l.82,1.16h-3.05l1.53,2.32h-7.63v.12c.16,.16,.35,.39,.59,.7,.23,.31,.55,.62,.94,.93h-3.99c.31,.23,.62,.43,.94,.58h4.81c.31,.08,.66,.17,1.06,.29,.39,.12,.82,.17,1.29,.17h18.55c.7,0,1.25-.15,1.64-.46h-4.69c.16-.08,.39-.27,.7-.58h3.99c.16-.23,.31-.5,.47-.81,.16-.31,.23-.62,.23-.93h7.75v-2.32h3.05v-1.16h-.59v-1.74h-13.62v-2.32h1.76v-2.32h-4.11v-.58h4.77l-.78-1.16h1.29Zm-47.3-11.6v-.58h2.35v-2.32h-1.88v-2.32h.12v-.58h3.05l.47,.58h-2.58l1.53,2.32h.35l1.53,2.32h3.29l.35,.58h-8.57Zm16.43-22.61h-.7l-1.41-2.32h2.11v2.32Zm5.05-4.06h-1.17v1.74h-3.76l-1.06-1.74h3.17l-.71-1.16h3.52v1.16Zm4.34-1.16h-.47l-.35-.58h.82v.58Z"/><path class="cls-5" d="M669.01,53.43h-7.16v-1.74h9.16v-1.16h-.7v-1.74h-2.23c0-.22,.02-.41,.04-.58h-1.69c-.16-.46-.31-.85-.47-1.16h-3.99c-.63-.85-1.49-1.28-2.58-1.28h-21.25c-1.1,0-1.96,.43-2.58,1.28h3.99c-.31,.46-.51,.85-.59,1.16h3.87c-.08,.16-.12,.39-.12,.7v1.62h.7v1.16h-9.16v1.74h7.16v1.16h-3.4v1.74h-2.58v1.95l33.57-4.21v-.64Z"/></g><g><path class="cls-5" d="M670.3,48.8h14.32v1.16h-9.27v2.32h2.82v.65l57.03-7.15h-53.04c-.86,0-1.53,.23-2,.7h5.28c-.16,.16-.31,.33-.47,.52-.16,.19-.27,.41-.35,.64h-16.32c-.09,.14-.15,.34-.19,.58h2.19v.58Z"/><path class="cls-5" d="M755.05,105.62h-14.44c.08-.15,.12-.35,.12-.58h1.88l.35-1.74h5.63c.08-.31,.14-.6,.18-.87,.04-.27,.06-.56,.06-.87h-1.06c.08-.31,.12-.6,.12-.87s.04-.56,.12-.87h-.35v-.58c0-.23,.04-.42,.12-.58h-5.28v-1.74h-5.05v-.58h-2.7v-1.74h18.43v-1.74h-10.8v-1.74h-4.81v-.58h10.92v-2.32h-.47v-.58h2.11v-1.74h1.41v-1.16h-6.57v-1.16h7.39v-2.32h2.11v-1.16h-9.04v-.58h2.93v-2.32h-2v-1.74h1.29v-2.32h.35v-1.74h.12v-1.74h3.52v-1.74h-4.11v-.58h-3.99v-2.32h-10.68v-1.74h14.91v-1.16h-9.74v-2.32h6.57v-2.32h13.5v-2.32h-13.38v-.58h1.88v-2.32h-2.82v-2.32h9.27v-1.16h-16.33l-18.76,2.64-28.29,3.98v2.07h-13.5v2.32h-5.63v.58h-.94v1.74h9.74v1.16h-10.09v1.16h-2.82v.58h8.69v1.16c0,.31,.08,.7,.24,1.16h3.87l.35,.58h4.11c.7,.93,1.6,1.39,2.7,1.39h34.86v.35h-3.52v1.74h-.12v1.74h-.35v2.32h-1.29v1.74h2v2.32h-2.93v.58h9.04v1.16h-2.11v2.32h-7.39v1.16h6.57v1.16h-1.41v1.74h-2.11v.58h.47v2.32h-10.92v.58h4.81v1.74h10.8v1.74h-18.43v1.74h2.7v.58h5.05c0,.31-.02,.6-.06,.87-.04,.27-.06,.56-.06,.87h5.28c-.08,.23-.12,.45-.12,.64s-.04,.37-.12,.52h.35c-.08,.31-.16,.62-.24,.93-.08,.31-.16,.58-.23,.81h1.06c-.24,.62-.55,1.2-.94,1.74h-5.75c-.55,.77-1.29,1.35-2.23,1.74h-1.88c-.7,.31-1.64,.46-2.82,.46-1.33,0-2.35-.15-3.05-.46h3.17c-1.02-.39-1.8-.97-2.35-1.74h2.82c-.31-.46-.67-1.04-1.06-1.74h.35l-.35-.7c-.08-.15-.16-.33-.23-.52-.08-.19-.16-.37-.23-.52l-.82-1.16h.94c-.94-1-2.15-1.51-3.64-1.51h-23.94c-1.02,0-1.8,.5-2.35,1.51h-.82c-.16,.46-.23,.81-.23,1.04v.12c0,.31,.02,.6,.06,.87,.04,.27,.06,.56,.06,.87h-.35c0,.31,.02,.6,.06,.87,.04,.27,.1,.56,.18,.87h-2.93l.35,1.74h-3.17c.08,.16,.12,.35,.12,.58h14.44l.35,1.16h-4.11l.24,.58h-3.99c.08,.31,.18,.6,.29,.87,.12,.27,.21,.56,.29,.87h-3.87c.16,.31,.29,.6,.41,.87,.12,.27,.25,.56,.41,.87h8.22c.16,.31,.31,.6,.47,.87,.16,.27,.31,.56,.47,.87h-15.26v1.16h-.51l.39,.58h13.38c.16,.16,.31,.35,.47,.58,.16,.23,.31,.43,.47,.58h.47c.39,.39,.76,.77,1.12,1.16,.35,.39,.72,.77,1.12,1.16h-4.46c.86,.85,1.76,1.62,2.7,2.32h-1.41c.31,.16,.59,.35,.82,.58,.23,.23,.51,.43,.82,.58h3.64l2.82,1.74h.59c.86,.46,1.72,.87,2.58,1.22,.86,.35,1.76,.71,2.7,1.1,.63,.23,1.25,.45,1.88,.64,.62,.19,1.25,.37,1.88,.52h.12c.94,.23,1.9,.45,2.88,.64,.98,.19,1.97,.37,2.99,.52h-.12c1.17,.15,2.35,.27,3.52,.35,1.17,.08,2.35,.12,3.52,.12,1.33,0,2.66-.04,3.99-.12,1.33-.08,2.62-.19,3.87-.35h.12c1.09-.16,2.17-.33,3.23-.52,1.06-.19,2.09-.41,3.11-.64,.63-.15,1.27-.33,1.94-.52,.66-.19,1.31-.41,1.94-.64h-.12c.94-.39,1.86-.75,2.76-1.1,.9-.35,1.74-.75,2.52-1.22h-.47c.55-.31,1.06-.6,1.53-.87,.47-.27,.94-.56,1.41-.87h-3.64c.31-.15,.59-.35,.82-.58,.23-.23,.47-.42,.7-.58h1.53c.47-.39,.92-.77,1.35-1.16,.43-.39,.84-.77,1.23-1.16h4.34c.39-.39,.76-.77,1.12-1.16,.35-.39,.68-.77,1-1.16h-.47l.82-1.16h-13.38l1.06-1.74h16.55l.94-1.74h-8.22l.7-1.74h3.99c.16-.31,.27-.6,.35-.87,.08-.27,.16-.56,.23-.87h3.99c0-.15,.02-.27,.06-.35,.04-.08,.06-.15,.06-.23h4.11l.35-1.16Z"/></g><path class="cls-5" d="M842.96,117.21h-1.41l-.82-2.32h-4.58l-.47-1.16h-.23l-.7-1.74h1.17l-.24-.58h-2.58l-.82-2.32h4.11l-.47-1.16h-3.64l-.24-.58h.59l-.82-2.32h-.35l-.7-1.74h.59l-.82-2.32h1.53l-.59-1.74h-.12l-.23-.58h5.99l-.24-.58h-.35l-.59-1.74h-6.69l-.71-2.32h2.11l-.23-.58h.59l-.12-.58h-2.35l-.82-2.32h3.4l-.47-1.16h-1.88l-.82-2.32h.35l-.59-1.74h-1.29l-.82-2.32h-3.76l-.24-.58h3.87l-.47-1.16h-.12l-.59-1.74h-4.23l-.12-.58h2.82l-.82-2.32h2.35l-.59-1.74h.94l-.35-1.16h-18.66l-.47-1.16h4.58l-.82-2.32h-1.41l-.59-1.74h4.58l-.82-2.32h11.74l-.59-1.74h-5.63l-.47-1.16h4.34l-.82-2.32h-3.87l-.59-1.74h2.46l-.82-2.32h-.35l-.82-2.32h-3.29l-.23-.58h11.15l-.82-2.32h-.35l-.12-.58h-4.11l-.59-1.51c0-.23-.08-.5-.23-.81h1.17l-.7-1.16h-.47c-.39-.54-.94-.99-1.64-1.33-.7-.35-1.57-.52-2.58-.52h-25.47c-1.02,0-1.88,.17-2.58,.52-.7,.35-1.25,.79-1.64,1.33h.35l-.7,1.16h-1.17l-.35,.81-.47,1.51h4.11l-.23,.58h.35l-.82,2.32h-11.27l-.12,.58h3.29l-.82,2.32h.35l-.82,2.32h-2.46l-.59,1.74h3.87l-.82,2.32h-4.34l-.47,1.16h5.63l-.59,1.74h-11.74l-.82,2.32h-4.58l-.7,1.74h1.53l-.82,2.32h1.53l-.35,1.16h8.1l-.35,1.16h1.29l-.59,1.74h2.58l-.82,2.32h-2.11l-.12,.58h1.17l-.59,1.74h-2.58l-.47,1.16h2.7l-.23,.58h.35l-.82,2.32h-1.29l-.59,1.74h1.06l-.82,2.32h-1.76l-.47,1.16h4.58l-.82,2.32h-3.76l-.24,.58h1.29l-.23,.58h-2.11l-.82,2.32h6.57l-.59,1.74h.35l-.24,.58h-5.87l-.24,.58-.59,1.74h-1.53l-.82,2.32h-.47l-.59,1.74h.35l-.82,2.32h-.59l-.23,.58h3.64l-.35,1.16h-3.99l-.82,2.32h2.58l-.23,.58h-1.17l-.59,1.74h.35l-.47,1.16h4.58l-.82,2.32h-1.29l-.82,2.32h-1.29l-.47,1.16h-.7l-.82,2.32h.12l-.12,.58c-.08,.16-.12,.35-.12,.58h-.7v.23c0,.85,.39,1.55,1.17,2.09h3.52c.31,.31,.78,.46,1.41,.46h21.71c.55,0,1.02-.06,1.41-.17,.39-.12,.74-.21,1.06-.29h-3.52c.62-.31,1.09-.68,1.41-1.1,.31-.42,.55-.83,.7-1.22h.59l.12-.12,.12-.46,.23-.58h-.12l.82-2.32h.7l.47-1.16h1.29l.82-2.32h1.41l.23-.81h25.24l.35,.81h1.41l.82,2.32h-4.81l.35,1.16h2.23l.82,2.32h-2l.24,.58,.23,.46v.12h-.59c.16,.39,.39,.79,.7,1.22,.31,.43,.78,.79,1.41,1.1,.39,.08,.76,.17,1.11,.29,.35,.12,.8,.17,1.35,.17h21.71c.63,0,1.13-.15,1.53-.46h-.12c.7-.46,1.06-1.16,1.06-2.09v-.23h.71c0-.08-.02-.17-.06-.29-.04-.12-.06-.21-.06-.29l-.23-.58h2l-.82-2.32h-2.23l-.35-1.16h4.81l-.82-2.32Zm-50.12-43.48h5.28l.35,1.16h-.94l.59,1.74h-4.81l.59-1.74h-1.41l.35-1.16Zm3.52,5.22h-1.17l.59-1.97,.59,1.97Zm5.16,13.92h2.35l.12,.58h-.59l.12,.35h-13.26l.12-.35h-1.29l.23-.58h3.76l.7-2.32h-4.58l.35-1.16h1.76l.71-2.32h-1.06l.59-1.74h1.29l.7-2.32h-.35l.12-.58h-2.58l.35-1.16h2.58l.47-1.74h3.76l.59,1.74h.12l.35,1.16h-3.87l.23,.58h3.76l.7,2.32h1.29l.47,1.74h-.35l.7,2.32h2l.35,1.16h-3.4l.7,2.32Z"/><g><path class="cls-5" d="M535.71,49.03c0-.85-.31-1.58-.94-2.2-.63-.62-1.37-.93-2.23-.93h-21.25c-.86,0-1.6,.31-2.23,.93-.63,.62-.94,1.35-.94,2.2v25.21l27.58-3.46v-21.75Z"/><path class="cls-5" d="M488.29,48.57c-1.02-1.78-2.62-2.67-4.81-2.67h-18.54c-.86,0-1.6,.31-2.23,.93-.63,.62-.94,1.35-.94,2.2v31.02l42.67-5.35-16.14-26.14Z"/><path class="cls-5" d="M545.69,120.8v-1.74h-9.98v-6.96h1.76v-1.74h-1.76v-2.32h4.46v-.58h-3.87v-1.16h-.59v-29.21l-73.95,10.41v36.44c0,.85,.31,1.58,.94,2.2,.63,.62,1.37,.93,2.23,.93h21.25c.86,0,1.6-.31,2.23-.93,.63-.62,.94-1.35,.94-2.2v-29.11l19.84,29.57c.44,.65,1,1.24,1.65,1.75-.17,.15-.33,.3-.5,.44h1.18c.65,.31,1.48,.47,2.49,.47h18.55s.04,0,.06,0h.52c.7,0,1.25-.15,1.64-.46h-.59c.2-.13,.4-.28,.59-.46,.54-.53,.83-1.16,.91-1.86h7.54v-2.32h3.05v-1.16h-.59Z"/></g></g></g></g></svg>