<?xml version="1.0" encoding="UTF-8"?><svg id="Layer_2" xmlns="http://www.w3.org/2000/svg" viewBox="0 0 258.57 22.99"><defs><style>.cls-1{fill:#00b3ff;}.cls-2{fill:#282936;}</style></defs><g id="Layer_1-2"><g><path class="cls-2" d="M2.2,21.09C.84,19.82,.11,18.06,.03,15.82l-.03-1.25,.03-1.25c.08-2.25,.81-4,2.17-5.27,1.36-1.27,3.19-1.9,5.48-1.9,1.64,0,3.03,.29,4.16,.87,1.13,.58,1.98,1.29,2.53,2.14s.85,1.65,.89,2.42c.02,.21-.05,.38-.2,.53-.16,.15-.34,.22-.55,.22h-2.78c-.23,0-.4-.05-.5-.14-.1-.09-.21-.27-.31-.51-.31-.79-.72-1.36-1.23-1.72-.51-.35-1.16-.53-1.95-.53-1.06,0-1.89,.33-2.48,1-.59,.67-.91,1.68-.95,3.06l-.03,1.15,.03,1.03c.13,2.7,1.27,4.06,3.43,4.06,.81,0,1.47-.17,1.97-.51,.5-.34,.91-.92,1.22-1.73,.08-.23,.18-.4,.3-.5,.11-.1,.29-.16,.52-.16h2.78c.21,0,.39,.07,.55,.22,.16,.15,.22,.32,.2,.53-.04,.73-.33,1.51-.87,2.36-.54,.84-1.37,1.57-2.5,2.17-1.12,.6-2.53,.91-4.21,.91-2.29,0-4.11-.63-5.48-1.9Z"/><path class="cls-2" d="M20.37,21.12c-1.1-1.25-1.65-2.96-1.65-5.15V7.21c0-.23,.07-.41,.22-.55,.15-.14,.32-.2,.53-.2h2.81c.21,0,.38,.07,.53,.22,.15,.15,.22,.32,.22,.53V15.79c0,2.56,1.11,3.84,3.34,3.84,1.08,0,1.94-.34,2.57-1.03s.95-1.62,.95-2.81V7.21c0-.23,.07-.41,.22-.55,.15-.14,.32-.2,.53-.2h2.78c.23,0,.41,.07,.55,.2s.2,.32,.2,.55v14.73c0,.21-.07,.39-.2,.53-.14,.15-.32,.22-.55,.22h-2.59c-.21,0-.38-.07-.53-.22-.15-.15-.22-.32-.22-.53v-1.28c-1.14,1.56-2.87,2.34-5.18,2.34-1.91,0-3.42-.62-4.52-1.87Z"/><path class="cls-2" d="M41.74,21.2c-.96-.99-1.44-2.44-1.44-4.35v-7.05h-2.46c-.21,0-.39-.07-.53-.22-.15-.15-.22-.32-.22-.53v-1.84c0-.21,.07-.38,.22-.53s.32-.22,.53-.22h2.46V1.28c0-.23,.07-.41,.22-.55,.15-.14,.32-.2,.53-.2h2.59c.23,0,.41,.07,.55,.2,.13,.14,.2,.32,.2,.55V6.46h3.9c.21,0,.38,.07,.53,.22,.15,.15,.22,.32,.22,.53v1.84c0,.21-.07,.39-.22,.53s-.32,.22-.53,.22h-3.9v6.71c0,.9,.16,1.57,.47,2.03,.31,.46,.82,.69,1.53,.69h2.18c.23,0,.41,.07,.55,.2,.13,.14,.2,.32,.2,.55v1.97c0,.21-.07,.39-.2,.53-.14,.15-.32,.22-.55,.22h-2.56c-1.89,0-3.32-.49-4.27-1.48Z"/><path class="cls-2" d="M60.06,3.59c-.15-.15-.22-.32-.22-.53V.78c0-.23,.07-.42,.22-.56,.15-.15,.32-.22,.53-.22h2.87c.23,0,.42,.07,.56,.22,.15,.15,.22,.33,.22,.56V3.06c0,.21-.08,.38-.23,.53-.16,.15-.34,.22-.55,.22h-2.87c-.21,0-.39-.07-.53-.22Zm.13,18.87c-.15-.15-.22-.32-.22-.53V7.21c0-.23,.07-.41,.22-.55,.15-.14,.32-.2,.53-.2h2.65c.21,0,.38,.07,.53,.22,.15,.15,.22,.32,.22,.53v14.73c0,.21-.07,.39-.22,.53s-.32,.22-.53,.22h-2.65c-.21,0-.38-.07-.53-.22Z"/><path class="cls-2" d="M71.69,21.2c-.96-.99-1.44-2.44-1.44-4.35v-7.05h-2.46c-.21,0-.39-.07-.53-.22-.15-.15-.22-.32-.22-.53v-1.84c0-.21,.07-.38,.22-.53s.32-.22,.53-.22h2.46V1.28c0-.23,.07-.41,.22-.55,.15-.14,.32-.2,.53-.2h2.59c.23,0,.41,.07,.55,.2,.13,.14,.2,.32,.2,.55V6.46h3.9c.21,0,.38,.07,.53,.22,.15,.15,.22,.32,.22,.53v1.84c0,.21-.07,.39-.22,.53s-.32,.22-.53,.22h-3.9v6.71c0,.9,.16,1.57,.47,2.03,.31,.46,.82,.69,1.53,.69h2.18c.23,0,.41,.07,.55,.2,.13,.14,.2,.32,.2,.55v1.97c0,.21-.07,.39-.2,.53-.14,.15-.32,.22-.55,.22h-2.56c-1.89,0-3.32-.49-4.27-1.48Z"/><path class="cls-1" d="M90.16,22.46c-.15-.15-.22-.32-.22-.53V1.28c0-.23,.07-.41,.22-.55s.32-.2,.53-.2h2.62c.23,0,.41,.07,.55,.2s.2,.32,.2,.55V21.93c0,.21-.07,.39-.2,.53-.14,.15-.32,.22-.55,.22h-2.62c-.21,0-.39-.07-.53-.22Z"/><path class="cls-1" d="M98.68,3.59c-.15-.15-.22-.32-.22-.53V.78c0-.23,.07-.42,.22-.56,.15-.15,.32-.22,.53-.22h2.87c.23,0,.42,.07,.56,.22,.15,.15,.22,.33,.22,.56V3.06c0,.21-.08,.38-.23,.53-.16,.15-.34,.22-.55,.22h-2.87c-.21,0-.39-.07-.53-.22Zm.13,18.87c-.15-.15-.22-.32-.22-.53V7.21c0-.23,.07-.41,.22-.55,.15-.14,.32-.2,.53-.2h2.65c.21,0,.38,.07,.53,.22,.15,.15,.22,.32,.22,.53v14.73c0,.21-.07,.39-.22,.53s-.32,.22-.53,.22h-2.65c-.21,0-.38-.07-.53-.22Z"/><path class="cls-1" d="M107.48,22.46c-.15-.15-.22-.32-.22-.53V1.28c0-.23,.07-.41,.22-.55s.32-.2,.53-.2h2.59c.21,0,.38,.07,.53,.22,.15,.15,.22,.32,.22,.53V11.95l5.18-4.96c.06-.04,.16-.12,.3-.23,.13-.11,.27-.19,.39-.23,.12-.04,.28-.06,.47-.06h2.96c.21,0,.37,.06,.5,.19,.12,.12,.19,.29,.19,.5,0,.19-.1,.37-.31,.56l-6.36,6.02,7.14,7.74c.19,.19,.28,.36,.28,.53,0,.21-.06,.37-.19,.5-.12,.12-.28,.19-.47,.19h-3.03c-.29,0-.5-.04-.64-.11-.14-.07-.31-.21-.51-.42l-5.9-6.27v6.05c0,.21-.07,.39-.22,.53s-.32,.22-.53,.22h-2.59c-.21,0-.39-.07-.53-.22Z"/><path class="cls-1" d="M125.56,21c-1.36-1.33-2.09-3.22-2.17-5.68l-.03-.78c0-2.6,.68-4.65,2.04-6.15,1.36-1.5,3.25-2.25,5.66-2.25s4.38,.75,5.72,2.25c1.34,1.5,2.01,3.49,2.01,5.99v.66c0,.21-.07,.39-.22,.53-.15,.15-.33,.22-.56,.22h-10.36v.25c.04,1.16,.36,2.13,.95,2.89,.59,.76,1.41,1.14,2.45,1.14,1.19,0,2.15-.48,2.9-1.43,.19-.23,.33-.37,.44-.42s.28-.08,.53-.08h2.75c.19,0,.35,.05,.48,.16s.2,.25,.2,.44c0,.5-.3,1.09-.89,1.76-.59,.68-1.44,1.26-2.54,1.76-1.1,.5-2.38,.75-3.84,.75-2.33,0-4.17-.66-5.54-2Zm8.94-7.86v-.06c0-1.23-.31-2.21-.92-2.95s-1.45-1.11-2.51-1.11-1.89,.37-2.5,1.11-.9,1.72-.9,2.95v.06h6.83Z"/><path class="cls-2" d="M151.76,22.35c-.88-.43-1.58-1-2.09-1.73-.51-.73-.76-1.53-.76-2.4,0-1.41,.57-2.56,1.72-3.43,1.14-.87,2.71-1.47,4.71-1.78l4.27-.62v-.66c0-.89-.23-1.57-.69-2.03s-1.19-.69-2.18-.69c-.69,0-1.24,.12-1.65,.37-.42,.25-.75,.5-1.01,.76-.26,.26-.43,.43-.51,.52-.08,.25-.24,.37-.47,.37h-2.43c-.19,0-.35-.06-.48-.19-.14-.13-.2-.29-.2-.5,.02-.52,.28-1.11,.76-1.76,.49-.66,1.24-1.23,2.26-1.72s2.28-.73,3.78-.73c2.45,0,4.24,.55,5.37,1.65s1.68,2.55,1.68,4.34v9.8c0,.21-.07,.39-.2,.53-.14,.15-.32,.22-.55,.22h-2.59c-.21,0-.39-.07-.53-.22-.15-.15-.22-.32-.22-.53v-1.22c-.46,.67-1.1,1.21-1.93,1.64-.83,.43-1.87,.64-3.12,.64-1.06,0-2.03-.21-2.92-.64Zm6.79-3.48c.73-.75,1.09-1.83,1.09-3.24v-.62l-3.12,.5c-2.39,.37-3.59,1.18-3.59,2.4,0,.67,.28,1.18,.83,1.54s1.21,.55,1.98,.55c1.14,0,2.08-.37,2.81-1.12Z"/><path class="cls-1" d="M175.89,22.46c-.15-.15-.22-.32-.22-.53V7.21c0-.23,.07-.41,.22-.55,.15-.14,.32-.2,.53-.2h2.59c.23,0,.41,.07,.55,.2s.2,.32,.2,.55v1.28c1.27-1.56,3.01-2.34,5.21-2.34,1.91,0,3.43,.62,4.55,1.87,1.12,1.25,1.68,2.96,1.68,5.15v8.77c0,.21-.07,.39-.2,.53-.14,.15-.32,.22-.55,.22h-2.81c-.21,0-.39-.07-.53-.22-.15-.15-.22-.32-.22-.53V13.35c0-1.21-.3-2.15-.89-2.82-.59-.68-1.44-1.01-2.54-1.01s-1.91,.34-2.56,1.03c-.65,.69-.97,1.62-.97,2.81v8.58c0,.21-.07,.39-.2,.53-.14,.15-.32,.22-.55,.22h-2.78c-.21,0-.38-.07-.53-.22Z"/><path class="cls-1" d="M195.64,3.59c-.15-.15-.22-.32-.22-.53V.78c0-.23,.07-.42,.22-.56,.15-.15,.32-.22,.53-.22h2.87c.23,0,.42,.07,.56,.22,.15,.15,.22,.33,.22,.56V3.06c0,.21-.08,.38-.23,.53-.16,.15-.34,.22-.55,.22h-2.87c-.21,0-.39-.07-.53-.22Zm.13,18.87c-.15-.15-.22-.32-.22-.53V7.21c0-.23,.07-.41,.22-.55,.15-.14,.32-.2,.53-.2h2.65c.21,0,.38,.07,.53,.22,.15,.15,.22,.32,.22,.53v14.73c0,.21-.07,.39-.22,.53s-.32,.22-.53,.22h-2.65c-.21,0-.38-.07-.53-.22Z"/><path class="cls-1" d="M204.41,22.46c-.15-.15-.22-.32-.22-.53V7.21c0-.23,.07-.41,.22-.55,.15-.14,.32-.2,.53-.2h2.59c.23,0,.41,.07,.55,.2s.2,.32,.2,.55v1.28c1.27-1.56,3.01-2.34,5.21-2.34,1.91,0,3.43,.62,4.55,1.87,1.12,1.25,1.68,2.96,1.68,5.15v8.77c0,.21-.07,.39-.2,.53-.14,.15-.32,.22-.55,.22h-2.81c-.21,0-.39-.07-.53-.22-.15-.15-.22-.32-.22-.53V13.35c0-1.21-.3-2.15-.89-2.82-.59-.68-1.44-1.01-2.54-1.01s-1.91,.34-2.56,1.03c-.65,.69-.97,1.62-.97,2.81v8.58c0,.21-.07,.39-.2,.53-.14,.15-.32,.22-.55,.22h-2.78c-.21,0-.38-.07-.53-.22Z"/><path class="cls-1" d="M227.26,22.21c-1.28-.52-2.31-1.3-3.09-2.34-.78-1.04-1.19-2.3-1.23-3.78,0-.19,.06-.35,.19-.48,.13-.14,.29-.2,.5-.2h3.03c.48,0,.78,.26,.9,.78,.17,1.08,.61,1.88,1.33,2.4,.72,.52,1.63,.78,2.73,.78,1.29,0,2.28-.42,2.98-1.26s1.05-2.02,1.05-3.54V4.59h-10.58c-.21,0-.39-.07-.53-.22-.15-.15-.22-.33-.22-.56V1.59c0-.23,.07-.41,.22-.55,.15-.14,.32-.2,.53-.2h14.32c.23,0,.41,.07,.55,.22,.13,.15,.2,.33,.2,.56V14.69c0,1.73-.35,3.21-1.06,4.46-.71,1.25-1.71,2.2-3.01,2.85-1.3,.66-2.82,.98-4.57,.98-1.54,0-2.95-.26-4.23-.78Z"/><path class="cls-1" d="M246.51,22.35c-.88-.43-1.58-1-2.09-1.73-.51-.73-.76-1.53-.76-2.4,0-1.41,.57-2.56,1.72-3.43,1.14-.87,2.71-1.47,4.71-1.78l4.27-.62v-.66c0-.89-.23-1.57-.69-2.03s-1.19-.69-2.18-.69c-.69,0-1.24,.12-1.65,.37-.42,.25-.75,.5-1.01,.76-.26,.26-.43,.43-.51,.52-.08,.25-.24,.37-.47,.37h-2.43c-.19,0-.35-.06-.48-.19-.14-.13-.2-.29-.2-.5,.02-.52,.28-1.11,.76-1.76,.49-.66,1.24-1.23,2.26-1.72s2.28-.73,3.78-.73c2.45,0,4.24,.55,5.37,1.65s1.68,2.55,1.68,4.34v9.8c0,.21-.07,.39-.2,.53-.14,.15-.32,.22-.55,.22h-2.59c-.21,0-.39-.07-.53-.22-.15-.15-.22-.32-.22-.53v-1.22c-.46,.67-1.1,1.21-1.93,1.64-.83,.43-1.87,.64-3.12,.64-1.06,0-2.03-.21-2.92-.64Zm6.79-3.48c.73-.75,1.09-1.83,1.09-3.24v-.62l-3.12,.5c-2.39,.37-3.59,1.18-3.59,2.4,0,.67,.28,1.18,.83,1.54s1.21,.55,1.98,.55c1.14,0,2.08-.37,2.81-1.12Z"/></g></g></svg>